; NON-PLATED HOLES START AT T1
; THROUGH (PLATED) HOLES START AT T100
M48
INCH
T1C0.125984
T100C0.028000
T101C0.035000
T102C0.038000
T103C0.031497
%
T1
X009503Y001577
X012944Y009323
X012944Y018573
X009405Y018605
X001334Y018605
X022444Y001573
X021944Y018573
X001334Y001479
X021944Y009323
T100
X009882Y006095
X000944Y003108
X009882Y008086
X000944Y016052
X000944Y012069
X009882Y010078
X009882Y004103
X000944Y017048
X009882Y013065
X000944Y004103
X000944Y014060
X009882Y005099
X000944Y015056
X009882Y007090
X009882Y011073
X009882Y003108
X000944Y009082
X000944Y011073
X000944Y007090
X009882Y009082
X009882Y014060
X009882Y017048
X000944Y013065
X000944Y005099
X009882Y015056
X009882Y012069
X009882Y016052
X000944Y008086
X000944Y010078
X000944Y006095
T101
X012444Y000573
X012444Y002345
X017444Y003573
X020444Y003573
X020003Y000573
X015003Y000573
X011444Y007573
X015444Y003573
X015003Y002345
X022444Y007573
X020003Y002345
X017444Y000573
X012444Y003573
X017444Y002345
X015444Y007573
X014444Y007573
X019444Y007573
X018444Y007573
T102
X015944Y018573
X018944Y018574
X017944Y018573
X016944Y018573
T103
X012444Y005573
X012444Y006558
X020444Y005573
X016444Y005573
X016444Y006558
X020444Y006558
T00
M30
