G04 MADE WITH FRITZING*
G04 WWW.FRITZING.ORG*
G04 DOUBLE SIDED*
G04 HOLES PLATED*
G04 CONTOUR ON CENTER OF CONTOUR VECTOR*
%ASAXBY*%
%FSLAX23Y23*%
%MOIN*%
%OFA0B0*%
%SFA1.0B1.0*%
%ADD10C,0.075000*%
%ADD11C,0.060000*%
%ADD12C,0.062992*%
%ADD13C,0.078000*%
%ADD14R,0.060014X0.060028*%
%ADD15R,0.060000X0.060028*%
%ADD16R,0.062992X0.062992*%
%ADD17R,0.077986X0.077944*%
%ADD18C,0.024000*%
%ADD19C,0.000100*%
%LNCOPPER0*%
G90*
G70*
G54D10*
X133Y1862D03*
X939Y1862D03*
X1293Y1859D03*
X2193Y1859D03*
X1293Y934D03*
X2193Y934D03*
X262Y1870D03*
X1083Y172D03*
X949Y160D03*
X133Y150D03*
G54D11*
X94Y311D03*
X94Y410D03*
X94Y510D03*
X94Y610D03*
X94Y709D03*
X94Y809D03*
X94Y908D03*
X94Y1008D03*
X94Y1107D03*
X94Y1207D03*
X94Y1307D03*
X94Y1406D03*
X94Y1506D03*
X94Y1605D03*
X94Y1705D03*
X988Y1705D03*
X988Y1605D03*
X988Y1506D03*
X988Y1406D03*
X988Y1307D03*
X988Y1207D03*
X988Y1107D03*
X988Y1008D03*
X988Y908D03*
X988Y809D03*
X988Y709D03*
X988Y610D03*
X988Y510D03*
X988Y410D03*
X988Y311D03*
G54D10*
X2000Y57D03*
X1744Y57D03*
X2000Y235D03*
X1744Y235D03*
X1500Y57D03*
X1244Y57D03*
X1500Y235D03*
X1244Y235D03*
G54D12*
X2044Y557D03*
X2044Y656D03*
X1644Y557D03*
X1644Y656D03*
X1244Y557D03*
X1244Y656D03*
G54D10*
X1744Y357D03*
X2044Y357D03*
X1244Y357D03*
X1544Y357D03*
X1944Y757D03*
X2244Y757D03*
X1544Y757D03*
X1844Y757D03*
X1144Y757D03*
X1444Y757D03*
G54D13*
X1594Y1857D03*
X1694Y1857D03*
X1794Y1857D03*
X1894Y1857D03*
G54D14*
X94Y410D03*
X94Y809D03*
G54D15*
X988Y1107D03*
X988Y410D03*
G54D16*
X2044Y557D03*
X1644Y557D03*
X1244Y557D03*
G54D17*
X1594Y1857D03*
G54D18*
X1194Y457D02*
X1245Y408D01*
D02*
X1095Y457D02*
X1194Y457D01*
D02*
X1245Y408D02*
X1244Y375D01*
D02*
X1002Y410D02*
X1045Y408D01*
D02*
X1045Y408D02*
X1095Y457D01*
D02*
X1994Y457D02*
X1795Y457D01*
D02*
X1744Y408D02*
X1744Y375D01*
D02*
X1795Y457D02*
X1744Y408D01*
D02*
X2044Y542D02*
X2045Y507D01*
D02*
X2045Y507D02*
X1994Y457D01*
D02*
X1744Y408D02*
X1744Y375D01*
D02*
X1644Y542D02*
X1644Y507D01*
D02*
X1695Y457D02*
X1744Y408D01*
D02*
X1644Y507D02*
X1695Y457D01*
D02*
X1644Y542D02*
X1644Y507D01*
D02*
X1644Y507D02*
X1595Y457D01*
D02*
X1595Y457D02*
X1294Y457D01*
D02*
X1294Y457D02*
X1245Y408D01*
D02*
X1245Y408D02*
X1244Y375D01*
D02*
X1194Y257D02*
X1228Y242D01*
D02*
X869Y257D02*
X1194Y257D01*
D02*
X974Y809D02*
X869Y807D01*
D02*
X820Y757D02*
X820Y333D01*
D02*
X820Y333D02*
X869Y257D01*
D02*
X869Y807D02*
X820Y757D01*
D02*
X1220Y157D02*
X1694Y158D01*
D02*
X1070Y57D02*
X1220Y157D01*
D02*
X1694Y158D02*
X1735Y220D01*
D02*
X820Y57D02*
X1070Y57D01*
D02*
X974Y908D02*
X795Y908D01*
D02*
X770Y858D02*
X770Y108D01*
D02*
X770Y108D02*
X820Y57D01*
D02*
X795Y908D02*
X770Y858D01*
D02*
X1194Y457D02*
X1244Y407D01*
D02*
X1244Y407D02*
X1244Y375D01*
D02*
X1244Y542D02*
X1244Y507D01*
D02*
X1244Y507D02*
X1194Y457D01*
D02*
X1594Y1158D02*
X1594Y1838D01*
D02*
X1544Y1107D02*
X1594Y1158D01*
D02*
X1002Y1107D02*
X1544Y1107D01*
G54D19*
G36*
X118Y1913D02*
X118Y1911D01*
X112Y1911D01*
X112Y1909D01*
X108Y1909D01*
X108Y1907D01*
X106Y1907D01*
X106Y1905D01*
X102Y1905D01*
X102Y1903D01*
X100Y1903D01*
X100Y1901D01*
X98Y1901D01*
X98Y1899D01*
X96Y1899D01*
X96Y1897D01*
X94Y1897D01*
X94Y1895D01*
X92Y1895D01*
X92Y1893D01*
X90Y1893D01*
X90Y1891D01*
X88Y1891D01*
X88Y1887D01*
X86Y1887D01*
X86Y1883D01*
X84Y1883D01*
X84Y1877D01*
X82Y1877D01*
X82Y1845D01*
X84Y1845D01*
X84Y1839D01*
X86Y1839D01*
X86Y1835D01*
X88Y1835D01*
X88Y1831D01*
X90Y1831D01*
X90Y1829D01*
X92Y1829D01*
X92Y1827D01*
X94Y1827D01*
X94Y1825D01*
X96Y1825D01*
X96Y1823D01*
X98Y1823D01*
X98Y1821D01*
X100Y1821D01*
X100Y1819D01*
X102Y1819D01*
X102Y1817D01*
X106Y1817D01*
X106Y1815D01*
X108Y1815D01*
X108Y1813D01*
X112Y1813D01*
X112Y1811D01*
X118Y1811D01*
X118Y1809D01*
X148Y1809D01*
X148Y1811D01*
X154Y1811D01*
X154Y1813D01*
X158Y1813D01*
X158Y1815D01*
X162Y1815D01*
X162Y1817D01*
X164Y1817D01*
X164Y1819D01*
X166Y1819D01*
X166Y1821D01*
X170Y1821D01*
X170Y1823D01*
X172Y1823D01*
X172Y1827D01*
X174Y1827D01*
X174Y1829D01*
X176Y1829D01*
X176Y1831D01*
X178Y1831D01*
X178Y1833D01*
X180Y1833D01*
X180Y1837D01*
X182Y1837D01*
X182Y1841D01*
X184Y1841D01*
X184Y1849D01*
X186Y1849D01*
X186Y1873D01*
X184Y1873D01*
X184Y1881D01*
X182Y1881D01*
X182Y1885D01*
X180Y1885D01*
X180Y1889D01*
X178Y1889D01*
X178Y1891D01*
X176Y1891D01*
X176Y1893D01*
X174Y1893D01*
X174Y1895D01*
X172Y1895D01*
X172Y1899D01*
X170Y1899D01*
X170Y1901D01*
X166Y1901D01*
X166Y1903D01*
X164Y1903D01*
X164Y1905D01*
X162Y1905D01*
X162Y1907D01*
X158Y1907D01*
X158Y1909D01*
X154Y1909D01*
X154Y1911D01*
X148Y1911D01*
X148Y1913D01*
X118Y1913D01*
G37*
D02*
G36*
X926Y1913D02*
X926Y1911D01*
X920Y1911D01*
X920Y1909D01*
X916Y1909D01*
X916Y1907D01*
X912Y1907D01*
X912Y1905D01*
X910Y1905D01*
X910Y1903D01*
X908Y1903D01*
X908Y1901D01*
X904Y1901D01*
X904Y1899D01*
X902Y1899D01*
X902Y1897D01*
X900Y1897D01*
X900Y1893D01*
X898Y1893D01*
X898Y1891D01*
X896Y1891D01*
X896Y1889D01*
X894Y1889D01*
X894Y1885D01*
X892Y1885D01*
X892Y1881D01*
X890Y1881D01*
X890Y1873D01*
X888Y1873D01*
X888Y1849D01*
X890Y1849D01*
X890Y1841D01*
X892Y1841D01*
X892Y1837D01*
X894Y1837D01*
X894Y1833D01*
X896Y1833D01*
X896Y1831D01*
X898Y1831D01*
X898Y1829D01*
X900Y1829D01*
X900Y1825D01*
X902Y1825D01*
X902Y1823D01*
X904Y1823D01*
X904Y1821D01*
X908Y1821D01*
X908Y1819D01*
X910Y1819D01*
X910Y1817D01*
X912Y1817D01*
X912Y1815D01*
X916Y1815D01*
X916Y1813D01*
X920Y1813D01*
X920Y1811D01*
X926Y1811D01*
X926Y1809D01*
X956Y1809D01*
X956Y1811D01*
X962Y1811D01*
X962Y1813D01*
X966Y1813D01*
X966Y1815D01*
X968Y1815D01*
X968Y1817D01*
X972Y1817D01*
X972Y1819D01*
X974Y1819D01*
X974Y1821D01*
X976Y1821D01*
X976Y1823D01*
X978Y1823D01*
X978Y1825D01*
X980Y1825D01*
X980Y1827D01*
X982Y1827D01*
X982Y1829D01*
X984Y1829D01*
X984Y1833D01*
X986Y1833D01*
X986Y1835D01*
X988Y1835D01*
X988Y1839D01*
X990Y1839D01*
X990Y1845D01*
X992Y1845D01*
X992Y1877D01*
X990Y1877D01*
X990Y1883D01*
X988Y1883D01*
X988Y1887D01*
X986Y1887D01*
X986Y1889D01*
X984Y1889D01*
X984Y1893D01*
X982Y1893D01*
X982Y1895D01*
X980Y1895D01*
X980Y1897D01*
X978Y1897D01*
X978Y1899D01*
X976Y1899D01*
X976Y1901D01*
X974Y1901D01*
X974Y1903D01*
X972Y1903D01*
X972Y1905D01*
X968Y1905D01*
X968Y1907D01*
X966Y1907D01*
X966Y1909D01*
X962Y1909D01*
X962Y1911D01*
X956Y1911D01*
X956Y1913D01*
X926Y1913D01*
G37*
D02*
G36*
X1284Y1911D02*
X1284Y1909D01*
X1276Y1909D01*
X1276Y1907D01*
X1272Y1907D01*
X1272Y1905D01*
X1268Y1905D01*
X1268Y1903D01*
X1264Y1903D01*
X1264Y1901D01*
X1262Y1901D01*
X1262Y1899D01*
X1260Y1899D01*
X1260Y1897D01*
X1258Y1897D01*
X1258Y1895D01*
X1256Y1895D01*
X1256Y1893D01*
X1254Y1893D01*
X1254Y1891D01*
X1252Y1891D01*
X1252Y1889D01*
X1250Y1889D01*
X1250Y1885D01*
X1248Y1885D01*
X1248Y1881D01*
X1246Y1881D01*
X1246Y1877D01*
X1244Y1877D01*
X1244Y1871D01*
X1242Y1871D01*
X1242Y1845D01*
X1244Y1845D01*
X1244Y1839D01*
X1246Y1839D01*
X1246Y1833D01*
X1248Y1833D01*
X1248Y1831D01*
X1250Y1831D01*
X1250Y1827D01*
X1252Y1827D01*
X1252Y1825D01*
X1254Y1825D01*
X1254Y1823D01*
X1256Y1823D01*
X1256Y1821D01*
X1258Y1821D01*
X1258Y1819D01*
X1260Y1819D01*
X1260Y1817D01*
X1262Y1817D01*
X1262Y1815D01*
X1264Y1815D01*
X1264Y1813D01*
X1268Y1813D01*
X1268Y1811D01*
X1272Y1811D01*
X1272Y1809D01*
X1276Y1809D01*
X1276Y1807D01*
X1284Y1807D01*
X1284Y1805D01*
X1306Y1805D01*
X1306Y1807D01*
X1312Y1807D01*
X1312Y1809D01*
X1318Y1809D01*
X1318Y1811D01*
X1322Y1811D01*
X1322Y1813D01*
X1324Y1813D01*
X1324Y1815D01*
X1326Y1815D01*
X1326Y1817D01*
X1330Y1817D01*
X1330Y1819D01*
X1332Y1819D01*
X1332Y1821D01*
X1334Y1821D01*
X1334Y1825D01*
X1336Y1825D01*
X1336Y1827D01*
X1338Y1827D01*
X1338Y1829D01*
X1340Y1829D01*
X1340Y1833D01*
X1342Y1833D01*
X1342Y1837D01*
X1344Y1837D01*
X1344Y1841D01*
X1346Y1841D01*
X1346Y1875D01*
X1344Y1875D01*
X1344Y1879D01*
X1342Y1879D01*
X1342Y1883D01*
X1340Y1883D01*
X1340Y1887D01*
X1338Y1887D01*
X1338Y1889D01*
X1336Y1889D01*
X1336Y1891D01*
X1334Y1891D01*
X1334Y1895D01*
X1332Y1895D01*
X1332Y1897D01*
X1328Y1897D01*
X1328Y1899D01*
X1326Y1899D01*
X1326Y1901D01*
X1324Y1901D01*
X1324Y1903D01*
X1320Y1903D01*
X1320Y1905D01*
X1316Y1905D01*
X1316Y1907D01*
X1312Y1907D01*
X1312Y1909D01*
X1304Y1909D01*
X1304Y1911D01*
X1284Y1911D01*
G37*
D02*
G36*
X2184Y1911D02*
X2184Y1909D01*
X2176Y1909D01*
X2176Y1907D01*
X2172Y1907D01*
X2172Y1905D01*
X2168Y1905D01*
X2168Y1903D01*
X2164Y1903D01*
X2164Y1901D01*
X2162Y1901D01*
X2162Y1899D01*
X2160Y1899D01*
X2160Y1897D01*
X2158Y1897D01*
X2158Y1895D01*
X2156Y1895D01*
X2156Y1893D01*
X2154Y1893D01*
X2154Y1891D01*
X2152Y1891D01*
X2152Y1889D01*
X2150Y1889D01*
X2150Y1885D01*
X2148Y1885D01*
X2148Y1881D01*
X2146Y1881D01*
X2146Y1877D01*
X2144Y1877D01*
X2144Y1871D01*
X2142Y1871D01*
X2142Y1845D01*
X2144Y1845D01*
X2144Y1839D01*
X2146Y1839D01*
X2146Y1833D01*
X2148Y1833D01*
X2148Y1831D01*
X2150Y1831D01*
X2150Y1827D01*
X2152Y1827D01*
X2152Y1825D01*
X2154Y1825D01*
X2154Y1823D01*
X2156Y1823D01*
X2156Y1821D01*
X2158Y1821D01*
X2158Y1819D01*
X2160Y1819D01*
X2160Y1817D01*
X2162Y1817D01*
X2162Y1815D01*
X2164Y1815D01*
X2164Y1813D01*
X2168Y1813D01*
X2168Y1811D01*
X2172Y1811D01*
X2172Y1809D01*
X2176Y1809D01*
X2176Y1807D01*
X2184Y1807D01*
X2184Y1805D01*
X2206Y1805D01*
X2206Y1807D01*
X2212Y1807D01*
X2212Y1809D01*
X2218Y1809D01*
X2218Y1811D01*
X2222Y1811D01*
X2222Y1813D01*
X2224Y1813D01*
X2224Y1815D01*
X2226Y1815D01*
X2226Y1817D01*
X2230Y1817D01*
X2230Y1819D01*
X2232Y1819D01*
X2232Y1821D01*
X2234Y1821D01*
X2234Y1825D01*
X2236Y1825D01*
X2236Y1827D01*
X2238Y1827D01*
X2238Y1829D01*
X2240Y1829D01*
X2240Y1833D01*
X2242Y1833D01*
X2242Y1837D01*
X2244Y1837D01*
X2244Y1841D01*
X2246Y1841D01*
X2246Y1875D01*
X2244Y1875D01*
X2244Y1879D01*
X2242Y1879D01*
X2242Y1883D01*
X2240Y1883D01*
X2240Y1887D01*
X2238Y1887D01*
X2238Y1889D01*
X2236Y1889D01*
X2236Y1891D01*
X2234Y1891D01*
X2234Y1895D01*
X2232Y1895D01*
X2232Y1897D01*
X2228Y1897D01*
X2228Y1899D01*
X2226Y1899D01*
X2226Y1901D01*
X2224Y1901D01*
X2224Y1903D01*
X2220Y1903D01*
X2220Y1905D01*
X2216Y1905D01*
X2216Y1907D01*
X2212Y1907D01*
X2212Y1909D01*
X2204Y1909D01*
X2204Y1911D01*
X2184Y1911D01*
G37*
D02*
G36*
X1280Y985D02*
X1280Y983D01*
X1274Y983D01*
X1274Y981D01*
X1270Y981D01*
X1270Y979D01*
X1266Y979D01*
X1266Y977D01*
X1264Y977D01*
X1264Y975D01*
X1262Y975D01*
X1262Y973D01*
X1258Y973D01*
X1258Y971D01*
X1256Y971D01*
X1256Y967D01*
X1254Y967D01*
X1254Y965D01*
X1252Y965D01*
X1252Y963D01*
X1250Y963D01*
X1250Y961D01*
X1248Y961D01*
X1248Y957D01*
X1246Y957D01*
X1246Y953D01*
X1244Y953D01*
X1244Y945D01*
X1242Y945D01*
X1242Y919D01*
X1244Y919D01*
X1244Y913D01*
X1246Y913D01*
X1246Y909D01*
X1248Y909D01*
X1248Y905D01*
X1250Y905D01*
X1250Y903D01*
X1252Y903D01*
X1252Y901D01*
X1254Y901D01*
X1254Y897D01*
X1256Y897D01*
X1256Y895D01*
X1258Y895D01*
X1258Y893D01*
X1262Y893D01*
X1262Y891D01*
X1264Y891D01*
X1264Y889D01*
X1266Y889D01*
X1266Y887D01*
X1270Y887D01*
X1270Y885D01*
X1274Y885D01*
X1274Y883D01*
X1280Y883D01*
X1280Y881D01*
X1310Y881D01*
X1310Y883D01*
X1316Y883D01*
X1316Y885D01*
X1320Y885D01*
X1320Y887D01*
X1322Y887D01*
X1322Y889D01*
X1326Y889D01*
X1326Y891D01*
X1328Y891D01*
X1328Y893D01*
X1330Y893D01*
X1330Y895D01*
X1332Y895D01*
X1332Y897D01*
X1334Y897D01*
X1334Y899D01*
X1336Y899D01*
X1336Y901D01*
X1338Y901D01*
X1338Y905D01*
X1340Y905D01*
X1340Y907D01*
X1342Y907D01*
X1342Y911D01*
X1344Y911D01*
X1344Y917D01*
X1346Y917D01*
X1346Y949D01*
X1344Y949D01*
X1344Y955D01*
X1342Y955D01*
X1342Y959D01*
X1340Y959D01*
X1340Y961D01*
X1338Y961D01*
X1338Y965D01*
X1336Y965D01*
X1336Y967D01*
X1334Y967D01*
X1334Y969D01*
X1332Y969D01*
X1332Y971D01*
X1330Y971D01*
X1330Y973D01*
X1328Y973D01*
X1328Y975D01*
X1326Y975D01*
X1326Y977D01*
X1322Y977D01*
X1322Y979D01*
X1320Y979D01*
X1320Y981D01*
X1314Y981D01*
X1314Y983D01*
X1308Y983D01*
X1308Y985D01*
X1280Y985D01*
G37*
D02*
G36*
X2180Y985D02*
X2180Y983D01*
X2174Y983D01*
X2174Y981D01*
X2170Y981D01*
X2170Y979D01*
X2166Y979D01*
X2166Y977D01*
X2164Y977D01*
X2164Y975D01*
X2162Y975D01*
X2162Y973D01*
X2158Y973D01*
X2158Y971D01*
X2156Y971D01*
X2156Y967D01*
X2154Y967D01*
X2154Y965D01*
X2152Y965D01*
X2152Y963D01*
X2150Y963D01*
X2150Y961D01*
X2148Y961D01*
X2148Y957D01*
X2146Y957D01*
X2146Y953D01*
X2144Y953D01*
X2144Y945D01*
X2142Y945D01*
X2142Y919D01*
X2144Y919D01*
X2144Y913D01*
X2146Y913D01*
X2146Y909D01*
X2148Y909D01*
X2148Y905D01*
X2150Y905D01*
X2150Y903D01*
X2152Y903D01*
X2152Y901D01*
X2154Y901D01*
X2154Y897D01*
X2156Y897D01*
X2156Y895D01*
X2158Y895D01*
X2158Y893D01*
X2162Y893D01*
X2162Y891D01*
X2164Y891D01*
X2164Y889D01*
X2166Y889D01*
X2166Y887D01*
X2170Y887D01*
X2170Y885D01*
X2174Y885D01*
X2174Y883D01*
X2180Y883D01*
X2180Y881D01*
X2210Y881D01*
X2210Y883D01*
X2216Y883D01*
X2216Y885D01*
X2220Y885D01*
X2220Y887D01*
X2222Y887D01*
X2222Y889D01*
X2226Y889D01*
X2226Y891D01*
X2228Y891D01*
X2228Y893D01*
X2230Y893D01*
X2230Y895D01*
X2232Y895D01*
X2232Y897D01*
X2234Y897D01*
X2234Y899D01*
X2236Y899D01*
X2236Y901D01*
X2238Y901D01*
X2238Y905D01*
X2240Y905D01*
X2240Y907D01*
X2242Y907D01*
X2242Y911D01*
X2244Y911D01*
X2244Y917D01*
X2246Y917D01*
X2246Y949D01*
X2244Y949D01*
X2244Y955D01*
X2242Y955D01*
X2242Y959D01*
X2240Y959D01*
X2240Y961D01*
X2238Y961D01*
X2238Y965D01*
X2236Y965D01*
X2236Y967D01*
X2234Y967D01*
X2234Y969D01*
X2232Y969D01*
X2232Y971D01*
X2230Y971D01*
X2230Y973D01*
X2228Y973D01*
X2228Y975D01*
X2226Y975D01*
X2226Y977D01*
X2222Y977D01*
X2222Y979D01*
X2220Y979D01*
X2220Y981D01*
X2214Y981D01*
X2214Y983D01*
X2208Y983D01*
X2208Y985D01*
X2180Y985D01*
G37*
D02*
G36*
X40Y1929D02*
X40Y1789D01*
X118Y1789D01*
X118Y1791D01*
X110Y1791D01*
X110Y1793D01*
X106Y1793D01*
X106Y1795D01*
X100Y1795D01*
X100Y1797D01*
X98Y1797D01*
X98Y1799D01*
X94Y1799D01*
X94Y1801D01*
X90Y1801D01*
X90Y1803D01*
X88Y1803D01*
X88Y1805D01*
X86Y1805D01*
X86Y1807D01*
X84Y1807D01*
X84Y1809D01*
X82Y1809D01*
X82Y1811D01*
X80Y1811D01*
X80Y1813D01*
X78Y1813D01*
X78Y1815D01*
X76Y1815D01*
X76Y1817D01*
X74Y1817D01*
X74Y1821D01*
X72Y1821D01*
X72Y1823D01*
X70Y1823D01*
X70Y1827D01*
X68Y1827D01*
X68Y1831D01*
X66Y1831D01*
X66Y1837D01*
X64Y1837D01*
X64Y1843D01*
X62Y1843D01*
X62Y1853D01*
X60Y1853D01*
X60Y1869D01*
X62Y1869D01*
X62Y1879D01*
X64Y1879D01*
X64Y1885D01*
X66Y1885D01*
X66Y1891D01*
X68Y1891D01*
X68Y1895D01*
X70Y1895D01*
X70Y1899D01*
X72Y1899D01*
X72Y1901D01*
X74Y1901D01*
X74Y1905D01*
X76Y1905D01*
X76Y1907D01*
X78Y1907D01*
X78Y1909D01*
X80Y1909D01*
X80Y1929D01*
X40Y1929D01*
G37*
D02*
G36*
X188Y1929D02*
X188Y1909D01*
X190Y1909D01*
X190Y1905D01*
X192Y1905D01*
X192Y1903D01*
X194Y1903D01*
X194Y1899D01*
X196Y1899D01*
X196Y1897D01*
X198Y1897D01*
X198Y1893D01*
X200Y1893D01*
X200Y1889D01*
X202Y1889D01*
X202Y1883D01*
X204Y1883D01*
X204Y1875D01*
X206Y1875D01*
X206Y1847D01*
X204Y1847D01*
X204Y1839D01*
X202Y1839D01*
X202Y1835D01*
X200Y1835D01*
X200Y1829D01*
X198Y1829D01*
X198Y1825D01*
X196Y1825D01*
X196Y1823D01*
X194Y1823D01*
X194Y1819D01*
X192Y1819D01*
X192Y1817D01*
X190Y1817D01*
X190Y1813D01*
X188Y1813D01*
X188Y1811D01*
X186Y1811D01*
X186Y1809D01*
X184Y1809D01*
X184Y1807D01*
X182Y1807D01*
X182Y1805D01*
X178Y1805D01*
X178Y1803D01*
X176Y1803D01*
X176Y1801D01*
X174Y1801D01*
X174Y1799D01*
X170Y1799D01*
X170Y1797D01*
X166Y1797D01*
X166Y1795D01*
X162Y1795D01*
X162Y1793D01*
X156Y1793D01*
X156Y1791D01*
X150Y1791D01*
X150Y1789D01*
X924Y1789D01*
X924Y1791D01*
X918Y1791D01*
X918Y1793D01*
X912Y1793D01*
X912Y1795D01*
X908Y1795D01*
X908Y1797D01*
X904Y1797D01*
X904Y1799D01*
X900Y1799D01*
X900Y1801D01*
X898Y1801D01*
X898Y1803D01*
X896Y1803D01*
X896Y1805D01*
X892Y1805D01*
X892Y1807D01*
X890Y1807D01*
X890Y1809D01*
X888Y1809D01*
X888Y1811D01*
X886Y1811D01*
X886Y1813D01*
X884Y1813D01*
X884Y1817D01*
X882Y1817D01*
X882Y1819D01*
X880Y1819D01*
X880Y1823D01*
X878Y1823D01*
X878Y1825D01*
X876Y1825D01*
X876Y1829D01*
X874Y1829D01*
X874Y1833D01*
X872Y1833D01*
X872Y1839D01*
X870Y1839D01*
X870Y1847D01*
X868Y1847D01*
X868Y1875D01*
X870Y1875D01*
X870Y1883D01*
X872Y1883D01*
X872Y1889D01*
X874Y1889D01*
X874Y1893D01*
X876Y1893D01*
X876Y1897D01*
X878Y1897D01*
X878Y1899D01*
X880Y1899D01*
X880Y1903D01*
X882Y1903D01*
X882Y1905D01*
X884Y1905D01*
X884Y1909D01*
X886Y1909D01*
X886Y1929D01*
X188Y1929D01*
G37*
D02*
G36*
X994Y1929D02*
X994Y1909D01*
X996Y1909D01*
X996Y1907D01*
X998Y1907D01*
X998Y1905D01*
X1000Y1905D01*
X1000Y1901D01*
X1002Y1901D01*
X1002Y1899D01*
X1004Y1899D01*
X1004Y1895D01*
X1006Y1895D01*
X1006Y1891D01*
X1008Y1891D01*
X1008Y1885D01*
X1010Y1885D01*
X1010Y1879D01*
X1012Y1879D01*
X1012Y1869D01*
X1014Y1869D01*
X1014Y1853D01*
X1012Y1853D01*
X1012Y1843D01*
X1010Y1843D01*
X1010Y1837D01*
X1008Y1837D01*
X1008Y1831D01*
X1006Y1831D01*
X1006Y1827D01*
X1004Y1827D01*
X1004Y1823D01*
X1002Y1823D01*
X1002Y1821D01*
X1000Y1821D01*
X1000Y1817D01*
X998Y1817D01*
X998Y1815D01*
X996Y1815D01*
X996Y1813D01*
X994Y1813D01*
X994Y1811D01*
X992Y1811D01*
X992Y1809D01*
X990Y1809D01*
X990Y1807D01*
X988Y1807D01*
X988Y1805D01*
X986Y1805D01*
X986Y1803D01*
X984Y1803D01*
X984Y1801D01*
X980Y1801D01*
X980Y1799D01*
X976Y1799D01*
X976Y1797D01*
X974Y1797D01*
X974Y1795D01*
X968Y1795D01*
X968Y1793D01*
X964Y1793D01*
X964Y1791D01*
X956Y1791D01*
X956Y1789D01*
X1268Y1789D01*
X1268Y1791D01*
X1264Y1791D01*
X1264Y1793D01*
X1260Y1793D01*
X1260Y1795D01*
X1256Y1795D01*
X1256Y1797D01*
X1252Y1797D01*
X1252Y1799D01*
X1250Y1799D01*
X1250Y1801D01*
X1248Y1801D01*
X1248Y1803D01*
X1246Y1803D01*
X1246Y1805D01*
X1244Y1805D01*
X1244Y1807D01*
X1242Y1807D01*
X1242Y1809D01*
X1240Y1809D01*
X1240Y1811D01*
X1238Y1811D01*
X1238Y1813D01*
X1236Y1813D01*
X1236Y1815D01*
X1234Y1815D01*
X1234Y1819D01*
X1232Y1819D01*
X1232Y1823D01*
X1230Y1823D01*
X1230Y1827D01*
X1228Y1827D01*
X1228Y1831D01*
X1226Y1831D01*
X1226Y1835D01*
X1224Y1835D01*
X1224Y1843D01*
X1222Y1843D01*
X1222Y1873D01*
X1224Y1873D01*
X1224Y1879D01*
X1226Y1879D01*
X1226Y1885D01*
X1228Y1885D01*
X1228Y1889D01*
X1230Y1889D01*
X1230Y1893D01*
X1232Y1893D01*
X1232Y1897D01*
X1234Y1897D01*
X1234Y1901D01*
X1236Y1901D01*
X1236Y1903D01*
X1238Y1903D01*
X1238Y1905D01*
X1240Y1905D01*
X1240Y1907D01*
X1242Y1907D01*
X1242Y1909D01*
X1244Y1909D01*
X1244Y1929D01*
X994Y1929D01*
G37*
D02*
G36*
X1346Y1929D02*
X1346Y1909D01*
X1348Y1909D01*
X1348Y1907D01*
X1904Y1907D01*
X1904Y1905D01*
X1910Y1905D01*
X1910Y1903D01*
X1916Y1903D01*
X1916Y1901D01*
X1920Y1901D01*
X1920Y1899D01*
X1922Y1899D01*
X1922Y1897D01*
X1924Y1897D01*
X1924Y1895D01*
X1928Y1895D01*
X1928Y1893D01*
X1930Y1893D01*
X1930Y1891D01*
X1932Y1891D01*
X1932Y1887D01*
X1934Y1887D01*
X1934Y1885D01*
X1936Y1885D01*
X1936Y1881D01*
X1938Y1881D01*
X1938Y1879D01*
X1940Y1879D01*
X1940Y1873D01*
X1942Y1873D01*
X1942Y1863D01*
X1944Y1863D01*
X1944Y1851D01*
X1942Y1851D01*
X1942Y1843D01*
X1940Y1843D01*
X1940Y1837D01*
X1938Y1837D01*
X1938Y1835D01*
X1936Y1835D01*
X1936Y1831D01*
X1934Y1831D01*
X1934Y1829D01*
X1932Y1829D01*
X1932Y1825D01*
X1930Y1825D01*
X1930Y1823D01*
X1928Y1823D01*
X1928Y1821D01*
X1926Y1821D01*
X1926Y1819D01*
X1922Y1819D01*
X1922Y1817D01*
X1920Y1817D01*
X1920Y1815D01*
X1916Y1815D01*
X1916Y1813D01*
X1912Y1813D01*
X1912Y1811D01*
X1904Y1811D01*
X1904Y1809D01*
X2140Y1809D01*
X2140Y1811D01*
X2138Y1811D01*
X2138Y1813D01*
X2136Y1813D01*
X2136Y1815D01*
X2134Y1815D01*
X2134Y1819D01*
X2132Y1819D01*
X2132Y1823D01*
X2130Y1823D01*
X2130Y1827D01*
X2128Y1827D01*
X2128Y1831D01*
X2126Y1831D01*
X2126Y1835D01*
X2124Y1835D01*
X2124Y1843D01*
X2122Y1843D01*
X2122Y1873D01*
X2124Y1873D01*
X2124Y1879D01*
X2126Y1879D01*
X2126Y1885D01*
X2128Y1885D01*
X2128Y1889D01*
X2130Y1889D01*
X2130Y1893D01*
X2132Y1893D01*
X2132Y1897D01*
X2134Y1897D01*
X2134Y1901D01*
X2136Y1901D01*
X2136Y1903D01*
X2138Y1903D01*
X2138Y1905D01*
X2140Y1905D01*
X2140Y1907D01*
X2142Y1907D01*
X2142Y1909D01*
X2144Y1909D01*
X2144Y1929D01*
X1346Y1929D01*
G37*
D02*
G36*
X1350Y1907D02*
X1350Y1903D01*
X1352Y1903D01*
X1352Y1901D01*
X1354Y1901D01*
X1354Y1899D01*
X1356Y1899D01*
X1356Y1895D01*
X1358Y1895D01*
X1358Y1891D01*
X1360Y1891D01*
X1360Y1887D01*
X1362Y1887D01*
X1362Y1883D01*
X1364Y1883D01*
X1364Y1875D01*
X1366Y1875D01*
X1366Y1865D01*
X1368Y1865D01*
X1368Y1851D01*
X1366Y1851D01*
X1366Y1841D01*
X1364Y1841D01*
X1364Y1833D01*
X1362Y1833D01*
X1362Y1829D01*
X1360Y1829D01*
X1360Y1825D01*
X1358Y1825D01*
X1358Y1821D01*
X1356Y1821D01*
X1356Y1817D01*
X1354Y1817D01*
X1354Y1815D01*
X1352Y1815D01*
X1352Y1811D01*
X1350Y1811D01*
X1350Y1809D01*
X1546Y1809D01*
X1546Y1907D01*
X1350Y1907D01*
G37*
D02*
G36*
X1644Y1907D02*
X1644Y1895D01*
X1664Y1895D01*
X1664Y1897D01*
X1666Y1897D01*
X1666Y1899D01*
X1670Y1899D01*
X1670Y1901D01*
X1674Y1901D01*
X1674Y1903D01*
X1678Y1903D01*
X1678Y1905D01*
X1686Y1905D01*
X1686Y1907D01*
X1644Y1907D01*
G37*
D02*
G36*
X1704Y1907D02*
X1704Y1905D01*
X1710Y1905D01*
X1710Y1903D01*
X1716Y1903D01*
X1716Y1901D01*
X1720Y1901D01*
X1720Y1899D01*
X1722Y1899D01*
X1722Y1897D01*
X1724Y1897D01*
X1724Y1895D01*
X1728Y1895D01*
X1728Y1893D01*
X1730Y1893D01*
X1730Y1891D01*
X1732Y1891D01*
X1732Y1887D01*
X1734Y1887D01*
X1734Y1885D01*
X1754Y1885D01*
X1754Y1887D01*
X1756Y1887D01*
X1756Y1889D01*
X1758Y1889D01*
X1758Y1891D01*
X1760Y1891D01*
X1760Y1893D01*
X1762Y1893D01*
X1762Y1895D01*
X1764Y1895D01*
X1764Y1897D01*
X1766Y1897D01*
X1766Y1899D01*
X1770Y1899D01*
X1770Y1901D01*
X1774Y1901D01*
X1774Y1903D01*
X1778Y1903D01*
X1778Y1905D01*
X1786Y1905D01*
X1786Y1907D01*
X1704Y1907D01*
G37*
D02*
G36*
X1804Y1907D02*
X1804Y1905D01*
X1810Y1905D01*
X1810Y1903D01*
X1816Y1903D01*
X1816Y1901D01*
X1820Y1901D01*
X1820Y1899D01*
X1822Y1899D01*
X1822Y1897D01*
X1824Y1897D01*
X1824Y1895D01*
X1828Y1895D01*
X1828Y1893D01*
X1830Y1893D01*
X1830Y1891D01*
X1832Y1891D01*
X1832Y1887D01*
X1834Y1887D01*
X1834Y1885D01*
X1854Y1885D01*
X1854Y1887D01*
X1856Y1887D01*
X1856Y1889D01*
X1858Y1889D01*
X1858Y1891D01*
X1860Y1891D01*
X1860Y1893D01*
X1862Y1893D01*
X1862Y1895D01*
X1864Y1895D01*
X1864Y1897D01*
X1866Y1897D01*
X1866Y1899D01*
X1870Y1899D01*
X1870Y1901D01*
X1874Y1901D01*
X1874Y1903D01*
X1878Y1903D01*
X1878Y1905D01*
X1886Y1905D01*
X1886Y1907D01*
X1804Y1907D01*
G37*
D02*
G36*
X2262Y1833D02*
X2262Y1829D01*
X2260Y1829D01*
X2260Y1825D01*
X2258Y1825D01*
X2258Y1821D01*
X2256Y1821D01*
X2256Y1817D01*
X2254Y1817D01*
X2254Y1815D01*
X2252Y1815D01*
X2252Y1811D01*
X2250Y1811D01*
X2250Y1809D01*
X2248Y1809D01*
X2248Y1807D01*
X2246Y1807D01*
X2246Y1805D01*
X2244Y1805D01*
X2244Y1803D01*
X2242Y1803D01*
X2242Y1801D01*
X2238Y1801D01*
X2238Y1799D01*
X2236Y1799D01*
X2236Y1797D01*
X2232Y1797D01*
X2232Y1795D01*
X2230Y1795D01*
X2230Y1793D01*
X2226Y1793D01*
X2226Y1791D01*
X2220Y1791D01*
X2220Y1789D01*
X2214Y1789D01*
X2214Y1787D01*
X2206Y1787D01*
X2206Y1785D01*
X2282Y1785D01*
X2282Y1833D01*
X2262Y1833D01*
G37*
D02*
G36*
X1734Y1831D02*
X1734Y1829D01*
X1732Y1829D01*
X1732Y1825D01*
X1730Y1825D01*
X1730Y1823D01*
X1728Y1823D01*
X1728Y1821D01*
X1726Y1821D01*
X1726Y1819D01*
X1722Y1819D01*
X1722Y1817D01*
X1720Y1817D01*
X1720Y1815D01*
X1716Y1815D01*
X1716Y1813D01*
X1712Y1813D01*
X1712Y1811D01*
X1704Y1811D01*
X1704Y1809D01*
X1784Y1809D01*
X1784Y1811D01*
X1778Y1811D01*
X1778Y1813D01*
X1774Y1813D01*
X1774Y1815D01*
X1770Y1815D01*
X1770Y1817D01*
X1766Y1817D01*
X1766Y1819D01*
X1764Y1819D01*
X1764Y1821D01*
X1762Y1821D01*
X1762Y1823D01*
X1760Y1823D01*
X1760Y1825D01*
X1758Y1825D01*
X1758Y1827D01*
X1756Y1827D01*
X1756Y1829D01*
X1754Y1829D01*
X1754Y1831D01*
X1734Y1831D01*
G37*
D02*
G36*
X1834Y1831D02*
X1834Y1829D01*
X1832Y1829D01*
X1832Y1825D01*
X1830Y1825D01*
X1830Y1823D01*
X1828Y1823D01*
X1828Y1821D01*
X1826Y1821D01*
X1826Y1819D01*
X1822Y1819D01*
X1822Y1817D01*
X1820Y1817D01*
X1820Y1815D01*
X1816Y1815D01*
X1816Y1813D01*
X1812Y1813D01*
X1812Y1811D01*
X1804Y1811D01*
X1804Y1809D01*
X1884Y1809D01*
X1884Y1811D01*
X1878Y1811D01*
X1878Y1813D01*
X1874Y1813D01*
X1874Y1815D01*
X1870Y1815D01*
X1870Y1817D01*
X1866Y1817D01*
X1866Y1819D01*
X1864Y1819D01*
X1864Y1821D01*
X1862Y1821D01*
X1862Y1823D01*
X1860Y1823D01*
X1860Y1825D01*
X1858Y1825D01*
X1858Y1827D01*
X1856Y1827D01*
X1856Y1829D01*
X1854Y1829D01*
X1854Y1831D01*
X1834Y1831D01*
G37*
D02*
G36*
X1644Y1821D02*
X1644Y1809D01*
X1684Y1809D01*
X1684Y1811D01*
X1678Y1811D01*
X1678Y1813D01*
X1674Y1813D01*
X1674Y1815D01*
X1670Y1815D01*
X1670Y1817D01*
X1666Y1817D01*
X1666Y1819D01*
X1664Y1819D01*
X1664Y1821D01*
X1644Y1821D01*
G37*
D02*
G36*
X1348Y1809D02*
X1348Y1807D01*
X2142Y1807D01*
X2142Y1809D01*
X1348Y1809D01*
G37*
D02*
G36*
X1348Y1809D02*
X1348Y1807D01*
X2142Y1807D01*
X2142Y1809D01*
X1348Y1809D01*
G37*
D02*
G36*
X1348Y1809D02*
X1348Y1807D01*
X2142Y1807D01*
X2142Y1809D01*
X1348Y1809D01*
G37*
D02*
G36*
X1348Y1809D02*
X1348Y1807D01*
X2142Y1807D01*
X2142Y1809D01*
X1348Y1809D01*
G37*
D02*
G36*
X1348Y1809D02*
X1348Y1807D01*
X2142Y1807D01*
X2142Y1809D01*
X1348Y1809D01*
G37*
D02*
G36*
X1346Y1807D02*
X1346Y1805D01*
X1344Y1805D01*
X1344Y1803D01*
X1342Y1803D01*
X1342Y1801D01*
X1338Y1801D01*
X1338Y1799D01*
X1336Y1799D01*
X1336Y1797D01*
X1332Y1797D01*
X1332Y1795D01*
X1330Y1795D01*
X1330Y1793D01*
X1326Y1793D01*
X1326Y1791D01*
X1320Y1791D01*
X1320Y1789D01*
X1314Y1789D01*
X1314Y1787D01*
X1306Y1787D01*
X1306Y1785D01*
X2182Y1785D01*
X2182Y1787D01*
X2174Y1787D01*
X2174Y1789D01*
X2168Y1789D01*
X2168Y1791D01*
X2164Y1791D01*
X2164Y1793D01*
X2160Y1793D01*
X2160Y1795D01*
X2156Y1795D01*
X2156Y1797D01*
X2152Y1797D01*
X2152Y1799D01*
X2150Y1799D01*
X2150Y1801D01*
X2148Y1801D01*
X2148Y1803D01*
X2146Y1803D01*
X2146Y1805D01*
X2144Y1805D01*
X2144Y1807D01*
X1346Y1807D01*
G37*
D02*
G36*
X40Y1789D02*
X40Y1787D01*
X1274Y1787D01*
X1274Y1789D01*
X40Y1789D01*
G37*
D02*
G36*
X40Y1789D02*
X40Y1787D01*
X1274Y1787D01*
X1274Y1789D01*
X40Y1789D01*
G37*
D02*
G36*
X40Y1789D02*
X40Y1787D01*
X1274Y1787D01*
X1274Y1789D01*
X40Y1789D01*
G37*
D02*
G36*
X40Y1787D02*
X40Y1785D01*
X1282Y1785D01*
X1282Y1787D01*
X40Y1787D01*
G37*
D02*
G36*
X40Y1785D02*
X40Y1783D01*
X2282Y1783D01*
X2282Y1785D01*
X40Y1785D01*
G37*
D02*
G36*
X40Y1785D02*
X40Y1783D01*
X2282Y1783D01*
X2282Y1785D01*
X40Y1785D01*
G37*
D02*
G36*
X40Y1785D02*
X40Y1783D01*
X2282Y1783D01*
X2282Y1785D01*
X40Y1785D01*
G37*
D02*
G36*
X40Y1783D02*
X40Y1737D01*
X996Y1737D01*
X996Y1735D01*
X1002Y1735D01*
X1002Y1733D01*
X1006Y1733D01*
X1006Y1731D01*
X1008Y1731D01*
X1008Y1729D01*
X1010Y1729D01*
X1010Y1727D01*
X1012Y1727D01*
X1012Y1725D01*
X1014Y1725D01*
X1014Y1723D01*
X1016Y1723D01*
X1016Y1719D01*
X1018Y1719D01*
X1018Y1713D01*
X1020Y1713D01*
X1020Y1697D01*
X1018Y1697D01*
X1018Y1691D01*
X1016Y1691D01*
X1016Y1689D01*
X1014Y1689D01*
X1014Y1685D01*
X1012Y1685D01*
X1012Y1683D01*
X1010Y1683D01*
X1010Y1681D01*
X1008Y1681D01*
X1008Y1679D01*
X1004Y1679D01*
X1004Y1677D01*
X1000Y1677D01*
X1000Y1675D01*
X994Y1675D01*
X994Y1673D01*
X2282Y1673D01*
X2282Y1783D01*
X40Y1783D01*
G37*
D02*
G36*
X40Y1737D02*
X40Y1673D01*
X88Y1673D01*
X88Y1675D01*
X82Y1675D01*
X82Y1677D01*
X78Y1677D01*
X78Y1679D01*
X76Y1679D01*
X76Y1681D01*
X72Y1681D01*
X72Y1683D01*
X70Y1683D01*
X70Y1687D01*
X68Y1687D01*
X68Y1689D01*
X66Y1689D01*
X66Y1693D01*
X64Y1693D01*
X64Y1701D01*
X62Y1701D01*
X62Y1711D01*
X64Y1711D01*
X64Y1717D01*
X66Y1717D01*
X66Y1721D01*
X68Y1721D01*
X68Y1725D01*
X70Y1725D01*
X70Y1727D01*
X72Y1727D01*
X72Y1729D01*
X74Y1729D01*
X74Y1731D01*
X78Y1731D01*
X78Y1733D01*
X80Y1733D01*
X80Y1735D01*
X86Y1735D01*
X86Y1737D01*
X40Y1737D01*
G37*
D02*
G36*
X102Y1737D02*
X102Y1735D01*
X108Y1735D01*
X108Y1733D01*
X112Y1733D01*
X112Y1731D01*
X114Y1731D01*
X114Y1729D01*
X116Y1729D01*
X116Y1727D01*
X118Y1727D01*
X118Y1725D01*
X120Y1725D01*
X120Y1723D01*
X122Y1723D01*
X122Y1719D01*
X124Y1719D01*
X124Y1713D01*
X126Y1713D01*
X126Y1697D01*
X124Y1697D01*
X124Y1691D01*
X122Y1691D01*
X122Y1687D01*
X120Y1687D01*
X120Y1685D01*
X118Y1685D01*
X118Y1683D01*
X116Y1683D01*
X116Y1681D01*
X114Y1681D01*
X114Y1679D01*
X110Y1679D01*
X110Y1677D01*
X106Y1677D01*
X106Y1675D01*
X100Y1675D01*
X100Y1673D01*
X982Y1673D01*
X982Y1675D01*
X976Y1675D01*
X976Y1677D01*
X972Y1677D01*
X972Y1679D01*
X968Y1679D01*
X968Y1681D01*
X966Y1681D01*
X966Y1683D01*
X964Y1683D01*
X964Y1685D01*
X962Y1685D01*
X962Y1689D01*
X960Y1689D01*
X960Y1693D01*
X958Y1693D01*
X958Y1699D01*
X956Y1699D01*
X956Y1711D01*
X958Y1711D01*
X958Y1717D01*
X960Y1717D01*
X960Y1721D01*
X962Y1721D01*
X962Y1725D01*
X964Y1725D01*
X964Y1727D01*
X966Y1727D01*
X966Y1729D01*
X968Y1729D01*
X968Y1731D01*
X970Y1731D01*
X970Y1733D01*
X974Y1733D01*
X974Y1735D01*
X980Y1735D01*
X980Y1737D01*
X102Y1737D01*
G37*
D02*
G36*
X40Y1673D02*
X40Y1671D01*
X2282Y1671D01*
X2282Y1673D01*
X40Y1673D01*
G37*
D02*
G36*
X40Y1673D02*
X40Y1671D01*
X2282Y1671D01*
X2282Y1673D01*
X40Y1673D01*
G37*
D02*
G36*
X40Y1673D02*
X40Y1671D01*
X2282Y1671D01*
X2282Y1673D01*
X40Y1673D01*
G37*
D02*
G36*
X40Y1671D02*
X40Y1637D01*
X998Y1637D01*
X998Y1635D01*
X1002Y1635D01*
X1002Y1633D01*
X1006Y1633D01*
X1006Y1631D01*
X1008Y1631D01*
X1008Y1629D01*
X1012Y1629D01*
X1012Y1625D01*
X1014Y1625D01*
X1014Y1623D01*
X1016Y1623D01*
X1016Y1619D01*
X1018Y1619D01*
X1018Y1613D01*
X1020Y1613D01*
X1020Y1597D01*
X1018Y1597D01*
X1018Y1593D01*
X1016Y1593D01*
X1016Y1589D01*
X1014Y1589D01*
X1014Y1585D01*
X1012Y1585D01*
X1012Y1583D01*
X1010Y1583D01*
X1010Y1581D01*
X1006Y1581D01*
X1006Y1579D01*
X1004Y1579D01*
X1004Y1577D01*
X1000Y1577D01*
X1000Y1575D01*
X990Y1575D01*
X990Y1573D01*
X2282Y1573D01*
X2282Y1671D01*
X40Y1671D01*
G37*
D02*
G36*
X40Y1637D02*
X40Y1573D01*
X92Y1573D01*
X92Y1575D01*
X84Y1575D01*
X84Y1577D01*
X80Y1577D01*
X80Y1579D01*
X76Y1579D01*
X76Y1581D01*
X74Y1581D01*
X74Y1583D01*
X72Y1583D01*
X72Y1585D01*
X70Y1585D01*
X70Y1587D01*
X68Y1587D01*
X68Y1589D01*
X66Y1589D01*
X66Y1593D01*
X64Y1593D01*
X64Y1601D01*
X62Y1601D01*
X62Y1611D01*
X64Y1611D01*
X64Y1617D01*
X66Y1617D01*
X66Y1621D01*
X68Y1621D01*
X68Y1625D01*
X70Y1625D01*
X70Y1627D01*
X72Y1627D01*
X72Y1629D01*
X74Y1629D01*
X74Y1631D01*
X76Y1631D01*
X76Y1633D01*
X80Y1633D01*
X80Y1635D01*
X84Y1635D01*
X84Y1637D01*
X40Y1637D01*
G37*
D02*
G36*
X104Y1637D02*
X104Y1635D01*
X108Y1635D01*
X108Y1633D01*
X112Y1633D01*
X112Y1631D01*
X116Y1631D01*
X116Y1629D01*
X118Y1629D01*
X118Y1625D01*
X120Y1625D01*
X120Y1623D01*
X122Y1623D01*
X122Y1619D01*
X124Y1619D01*
X124Y1615D01*
X126Y1615D01*
X126Y1597D01*
X124Y1597D01*
X124Y1591D01*
X122Y1591D01*
X122Y1589D01*
X120Y1589D01*
X120Y1585D01*
X118Y1585D01*
X118Y1583D01*
X116Y1583D01*
X116Y1581D01*
X114Y1581D01*
X114Y1579D01*
X110Y1579D01*
X110Y1577D01*
X106Y1577D01*
X106Y1575D01*
X96Y1575D01*
X96Y1573D01*
X986Y1573D01*
X986Y1575D01*
X978Y1575D01*
X978Y1577D01*
X972Y1577D01*
X972Y1579D01*
X970Y1579D01*
X970Y1581D01*
X968Y1581D01*
X968Y1583D01*
X964Y1583D01*
X964Y1587D01*
X962Y1587D01*
X962Y1589D01*
X960Y1589D01*
X960Y1593D01*
X958Y1593D01*
X958Y1599D01*
X956Y1599D01*
X956Y1611D01*
X958Y1611D01*
X958Y1619D01*
X960Y1619D01*
X960Y1623D01*
X962Y1623D01*
X962Y1625D01*
X964Y1625D01*
X964Y1627D01*
X966Y1627D01*
X966Y1629D01*
X968Y1629D01*
X968Y1631D01*
X970Y1631D01*
X970Y1633D01*
X974Y1633D01*
X974Y1635D01*
X978Y1635D01*
X978Y1637D01*
X104Y1637D01*
G37*
D02*
G36*
X40Y1573D02*
X40Y1571D01*
X2282Y1571D01*
X2282Y1573D01*
X40Y1573D01*
G37*
D02*
G36*
X40Y1573D02*
X40Y1571D01*
X2282Y1571D01*
X2282Y1573D01*
X40Y1573D01*
G37*
D02*
G36*
X40Y1573D02*
X40Y1571D01*
X2282Y1571D01*
X2282Y1573D01*
X40Y1573D01*
G37*
D02*
G36*
X40Y1571D02*
X40Y1539D01*
X990Y1539D01*
X990Y1537D01*
X1000Y1537D01*
X1000Y1535D01*
X1004Y1535D01*
X1004Y1533D01*
X1006Y1533D01*
X1006Y1531D01*
X1010Y1531D01*
X1010Y1529D01*
X1012Y1529D01*
X1012Y1527D01*
X1014Y1527D01*
X1014Y1523D01*
X1016Y1523D01*
X1016Y1519D01*
X1018Y1519D01*
X1018Y1515D01*
X1020Y1515D01*
X1020Y1499D01*
X1018Y1499D01*
X1018Y1493D01*
X1016Y1493D01*
X1016Y1489D01*
X1014Y1489D01*
X1014Y1487D01*
X1012Y1487D01*
X1012Y1483D01*
X1008Y1483D01*
X1008Y1481D01*
X1006Y1481D01*
X1006Y1479D01*
X1002Y1479D01*
X1002Y1477D01*
X998Y1477D01*
X998Y1475D01*
X2282Y1475D01*
X2282Y1571D01*
X40Y1571D01*
G37*
D02*
G36*
X40Y1539D02*
X40Y1475D01*
X84Y1475D01*
X84Y1477D01*
X80Y1477D01*
X80Y1479D01*
X76Y1479D01*
X76Y1481D01*
X74Y1481D01*
X74Y1483D01*
X72Y1483D01*
X72Y1485D01*
X70Y1485D01*
X70Y1487D01*
X68Y1487D01*
X68Y1491D01*
X66Y1491D01*
X66Y1495D01*
X64Y1495D01*
X64Y1501D01*
X62Y1501D01*
X62Y1511D01*
X64Y1511D01*
X64Y1519D01*
X66Y1519D01*
X66Y1523D01*
X68Y1523D01*
X68Y1525D01*
X70Y1525D01*
X70Y1527D01*
X72Y1527D01*
X72Y1529D01*
X74Y1529D01*
X74Y1531D01*
X76Y1531D01*
X76Y1533D01*
X80Y1533D01*
X80Y1535D01*
X84Y1535D01*
X84Y1537D01*
X92Y1537D01*
X92Y1539D01*
X40Y1539D01*
G37*
D02*
G36*
X96Y1539D02*
X96Y1537D01*
X106Y1537D01*
X106Y1535D01*
X110Y1535D01*
X110Y1533D01*
X114Y1533D01*
X114Y1531D01*
X116Y1531D01*
X116Y1529D01*
X118Y1529D01*
X118Y1527D01*
X120Y1527D01*
X120Y1523D01*
X122Y1523D01*
X122Y1521D01*
X124Y1521D01*
X124Y1515D01*
X126Y1515D01*
X126Y1497D01*
X124Y1497D01*
X124Y1493D01*
X122Y1493D01*
X122Y1489D01*
X120Y1489D01*
X120Y1485D01*
X118Y1485D01*
X118Y1483D01*
X116Y1483D01*
X116Y1481D01*
X112Y1481D01*
X112Y1479D01*
X108Y1479D01*
X108Y1477D01*
X104Y1477D01*
X104Y1475D01*
X978Y1475D01*
X978Y1477D01*
X974Y1477D01*
X974Y1479D01*
X970Y1479D01*
X970Y1481D01*
X968Y1481D01*
X968Y1483D01*
X966Y1483D01*
X966Y1485D01*
X964Y1485D01*
X964Y1487D01*
X962Y1487D01*
X962Y1489D01*
X960Y1489D01*
X960Y1493D01*
X958Y1493D01*
X958Y1499D01*
X956Y1499D01*
X956Y1513D01*
X958Y1513D01*
X958Y1519D01*
X960Y1519D01*
X960Y1523D01*
X962Y1523D01*
X962Y1525D01*
X964Y1525D01*
X964Y1529D01*
X968Y1529D01*
X968Y1531D01*
X970Y1531D01*
X970Y1533D01*
X974Y1533D01*
X974Y1535D01*
X978Y1535D01*
X978Y1537D01*
X986Y1537D01*
X986Y1539D01*
X96Y1539D01*
G37*
D02*
G36*
X40Y1475D02*
X40Y1473D01*
X2282Y1473D01*
X2282Y1475D01*
X40Y1475D01*
G37*
D02*
G36*
X40Y1475D02*
X40Y1473D01*
X2282Y1473D01*
X2282Y1475D01*
X40Y1475D01*
G37*
D02*
G36*
X40Y1475D02*
X40Y1473D01*
X2282Y1473D01*
X2282Y1475D01*
X40Y1475D01*
G37*
D02*
G36*
X40Y1473D02*
X40Y1439D01*
X994Y1439D01*
X994Y1437D01*
X1000Y1437D01*
X1000Y1435D01*
X1004Y1435D01*
X1004Y1433D01*
X1008Y1433D01*
X1008Y1431D01*
X1010Y1431D01*
X1010Y1429D01*
X1012Y1429D01*
X1012Y1427D01*
X1014Y1427D01*
X1014Y1423D01*
X1016Y1423D01*
X1016Y1421D01*
X1018Y1421D01*
X1018Y1415D01*
X1020Y1415D01*
X1020Y1399D01*
X1018Y1399D01*
X1018Y1393D01*
X1016Y1393D01*
X1016Y1389D01*
X1014Y1389D01*
X1014Y1387D01*
X1012Y1387D01*
X1012Y1385D01*
X1010Y1385D01*
X1010Y1383D01*
X1008Y1383D01*
X1008Y1381D01*
X1006Y1381D01*
X1006Y1379D01*
X1002Y1379D01*
X1002Y1377D01*
X996Y1377D01*
X996Y1375D01*
X2282Y1375D01*
X2282Y1473D01*
X40Y1473D01*
G37*
D02*
G36*
X40Y1439D02*
X40Y1375D01*
X86Y1375D01*
X86Y1377D01*
X80Y1377D01*
X80Y1379D01*
X76Y1379D01*
X76Y1381D01*
X74Y1381D01*
X74Y1383D01*
X72Y1383D01*
X72Y1385D01*
X70Y1385D01*
X70Y1387D01*
X68Y1387D01*
X68Y1391D01*
X66Y1391D01*
X66Y1395D01*
X64Y1395D01*
X64Y1401D01*
X62Y1401D01*
X62Y1411D01*
X64Y1411D01*
X64Y1419D01*
X66Y1419D01*
X66Y1423D01*
X68Y1423D01*
X68Y1425D01*
X70Y1425D01*
X70Y1429D01*
X72Y1429D01*
X72Y1431D01*
X76Y1431D01*
X76Y1433D01*
X78Y1433D01*
X78Y1435D01*
X82Y1435D01*
X82Y1437D01*
X90Y1437D01*
X90Y1439D01*
X40Y1439D01*
G37*
D02*
G36*
X100Y1439D02*
X100Y1437D01*
X106Y1437D01*
X106Y1435D01*
X110Y1435D01*
X110Y1433D01*
X114Y1433D01*
X114Y1431D01*
X116Y1431D01*
X116Y1429D01*
X118Y1429D01*
X118Y1427D01*
X120Y1427D01*
X120Y1425D01*
X122Y1425D01*
X122Y1421D01*
X124Y1421D01*
X124Y1415D01*
X126Y1415D01*
X126Y1399D01*
X124Y1399D01*
X124Y1393D01*
X122Y1393D01*
X122Y1389D01*
X120Y1389D01*
X120Y1387D01*
X118Y1387D01*
X118Y1385D01*
X116Y1385D01*
X116Y1383D01*
X114Y1383D01*
X114Y1381D01*
X112Y1381D01*
X112Y1379D01*
X108Y1379D01*
X108Y1377D01*
X102Y1377D01*
X102Y1375D01*
X980Y1375D01*
X980Y1377D01*
X974Y1377D01*
X974Y1379D01*
X970Y1379D01*
X970Y1381D01*
X968Y1381D01*
X968Y1383D01*
X966Y1383D01*
X966Y1385D01*
X964Y1385D01*
X964Y1387D01*
X962Y1387D01*
X962Y1391D01*
X960Y1391D01*
X960Y1395D01*
X958Y1395D01*
X958Y1401D01*
X956Y1401D01*
X956Y1413D01*
X958Y1413D01*
X958Y1419D01*
X960Y1419D01*
X960Y1423D01*
X962Y1423D01*
X962Y1425D01*
X964Y1425D01*
X964Y1429D01*
X966Y1429D01*
X966Y1431D01*
X970Y1431D01*
X970Y1433D01*
X972Y1433D01*
X972Y1435D01*
X976Y1435D01*
X976Y1437D01*
X984Y1437D01*
X984Y1439D01*
X100Y1439D01*
G37*
D02*
G36*
X40Y1375D02*
X40Y1373D01*
X2282Y1373D01*
X2282Y1375D01*
X40Y1375D01*
G37*
D02*
G36*
X40Y1375D02*
X40Y1373D01*
X2282Y1373D01*
X2282Y1375D01*
X40Y1375D01*
G37*
D02*
G36*
X40Y1375D02*
X40Y1373D01*
X2282Y1373D01*
X2282Y1375D01*
X40Y1375D01*
G37*
D02*
G36*
X40Y1373D02*
X40Y1339D01*
X996Y1339D01*
X996Y1337D01*
X1002Y1337D01*
X1002Y1335D01*
X1006Y1335D01*
X1006Y1333D01*
X1008Y1333D01*
X1008Y1331D01*
X1010Y1331D01*
X1010Y1329D01*
X1012Y1329D01*
X1012Y1327D01*
X1014Y1327D01*
X1014Y1325D01*
X1016Y1325D01*
X1016Y1321D01*
X1018Y1321D01*
X1018Y1315D01*
X1020Y1315D01*
X1020Y1299D01*
X1018Y1299D01*
X1018Y1293D01*
X1016Y1293D01*
X1016Y1289D01*
X1014Y1289D01*
X1014Y1287D01*
X1012Y1287D01*
X1012Y1285D01*
X1010Y1285D01*
X1010Y1283D01*
X1008Y1283D01*
X1008Y1281D01*
X1004Y1281D01*
X1004Y1279D01*
X1002Y1279D01*
X1002Y1277D01*
X996Y1277D01*
X996Y1275D01*
X2282Y1275D01*
X2282Y1373D01*
X40Y1373D01*
G37*
D02*
G36*
X40Y1339D02*
X40Y1275D01*
X88Y1275D01*
X88Y1277D01*
X82Y1277D01*
X82Y1279D01*
X78Y1279D01*
X78Y1281D01*
X74Y1281D01*
X74Y1283D01*
X72Y1283D01*
X72Y1285D01*
X70Y1285D01*
X70Y1287D01*
X68Y1287D01*
X68Y1291D01*
X66Y1291D01*
X66Y1295D01*
X64Y1295D01*
X64Y1303D01*
X62Y1303D01*
X62Y1313D01*
X64Y1313D01*
X64Y1319D01*
X66Y1319D01*
X66Y1323D01*
X68Y1323D01*
X68Y1327D01*
X70Y1327D01*
X70Y1329D01*
X72Y1329D01*
X72Y1331D01*
X74Y1331D01*
X74Y1333D01*
X78Y1333D01*
X78Y1335D01*
X82Y1335D01*
X82Y1337D01*
X88Y1337D01*
X88Y1339D01*
X40Y1339D01*
G37*
D02*
G36*
X102Y1339D02*
X102Y1337D01*
X108Y1337D01*
X108Y1335D01*
X112Y1335D01*
X112Y1333D01*
X114Y1333D01*
X114Y1331D01*
X116Y1331D01*
X116Y1329D01*
X118Y1329D01*
X118Y1327D01*
X120Y1327D01*
X120Y1325D01*
X122Y1325D01*
X122Y1321D01*
X124Y1321D01*
X124Y1315D01*
X126Y1315D01*
X126Y1299D01*
X124Y1299D01*
X124Y1293D01*
X122Y1293D01*
X122Y1289D01*
X120Y1289D01*
X120Y1287D01*
X118Y1287D01*
X118Y1285D01*
X116Y1285D01*
X116Y1283D01*
X114Y1283D01*
X114Y1281D01*
X112Y1281D01*
X112Y1279D01*
X108Y1279D01*
X108Y1277D01*
X102Y1277D01*
X102Y1275D01*
X982Y1275D01*
X982Y1277D01*
X976Y1277D01*
X976Y1279D01*
X972Y1279D01*
X972Y1281D01*
X968Y1281D01*
X968Y1283D01*
X966Y1283D01*
X966Y1285D01*
X964Y1285D01*
X964Y1287D01*
X962Y1287D01*
X962Y1291D01*
X960Y1291D01*
X960Y1295D01*
X958Y1295D01*
X958Y1301D01*
X956Y1301D01*
X956Y1313D01*
X958Y1313D01*
X958Y1319D01*
X960Y1319D01*
X960Y1323D01*
X962Y1323D01*
X962Y1327D01*
X964Y1327D01*
X964Y1329D01*
X966Y1329D01*
X966Y1331D01*
X968Y1331D01*
X968Y1333D01*
X972Y1333D01*
X972Y1335D01*
X976Y1335D01*
X976Y1337D01*
X982Y1337D01*
X982Y1339D01*
X102Y1339D01*
G37*
D02*
G36*
X40Y1275D02*
X40Y1273D01*
X2282Y1273D01*
X2282Y1275D01*
X40Y1275D01*
G37*
D02*
G36*
X40Y1275D02*
X40Y1273D01*
X2282Y1273D01*
X2282Y1275D01*
X40Y1275D01*
G37*
D02*
G36*
X40Y1275D02*
X40Y1273D01*
X2282Y1273D01*
X2282Y1275D01*
X40Y1275D01*
G37*
D02*
G36*
X40Y1273D02*
X40Y1239D01*
X996Y1239D01*
X996Y1237D01*
X1002Y1237D01*
X1002Y1235D01*
X1006Y1235D01*
X1006Y1233D01*
X1008Y1233D01*
X1008Y1231D01*
X1010Y1231D01*
X1010Y1229D01*
X1012Y1229D01*
X1012Y1227D01*
X1014Y1227D01*
X1014Y1225D01*
X1016Y1225D01*
X1016Y1221D01*
X1018Y1221D01*
X1018Y1215D01*
X1020Y1215D01*
X1020Y1199D01*
X1018Y1199D01*
X1018Y1195D01*
X1016Y1195D01*
X1016Y1191D01*
X1014Y1191D01*
X1014Y1187D01*
X1012Y1187D01*
X1012Y1185D01*
X1010Y1185D01*
X1010Y1183D01*
X1008Y1183D01*
X1008Y1181D01*
X1004Y1181D01*
X1004Y1179D01*
X1000Y1179D01*
X1000Y1177D01*
X992Y1177D01*
X992Y1175D01*
X2282Y1175D01*
X2282Y1273D01*
X40Y1273D01*
G37*
D02*
G36*
X40Y1239D02*
X40Y1175D01*
X90Y1175D01*
X90Y1177D01*
X82Y1177D01*
X82Y1179D01*
X78Y1179D01*
X78Y1181D01*
X76Y1181D01*
X76Y1183D01*
X72Y1183D01*
X72Y1185D01*
X70Y1185D01*
X70Y1189D01*
X68Y1189D01*
X68Y1191D01*
X66Y1191D01*
X66Y1195D01*
X64Y1195D01*
X64Y1203D01*
X62Y1203D01*
X62Y1213D01*
X64Y1213D01*
X64Y1219D01*
X66Y1219D01*
X66Y1223D01*
X68Y1223D01*
X68Y1227D01*
X70Y1227D01*
X70Y1229D01*
X72Y1229D01*
X72Y1231D01*
X74Y1231D01*
X74Y1233D01*
X76Y1233D01*
X76Y1235D01*
X80Y1235D01*
X80Y1237D01*
X86Y1237D01*
X86Y1239D01*
X40Y1239D01*
G37*
D02*
G36*
X104Y1239D02*
X104Y1237D01*
X108Y1237D01*
X108Y1235D01*
X112Y1235D01*
X112Y1233D01*
X114Y1233D01*
X114Y1231D01*
X118Y1231D01*
X118Y1227D01*
X120Y1227D01*
X120Y1225D01*
X122Y1225D01*
X122Y1221D01*
X124Y1221D01*
X124Y1215D01*
X126Y1215D01*
X126Y1199D01*
X124Y1199D01*
X124Y1193D01*
X122Y1193D01*
X122Y1189D01*
X120Y1189D01*
X120Y1187D01*
X118Y1187D01*
X118Y1185D01*
X116Y1185D01*
X116Y1183D01*
X114Y1183D01*
X114Y1181D01*
X110Y1181D01*
X110Y1179D01*
X106Y1179D01*
X106Y1177D01*
X100Y1177D01*
X100Y1175D01*
X984Y1175D01*
X984Y1177D01*
X976Y1177D01*
X976Y1179D01*
X972Y1179D01*
X972Y1181D01*
X970Y1181D01*
X970Y1183D01*
X966Y1183D01*
X966Y1185D01*
X964Y1185D01*
X964Y1189D01*
X962Y1189D01*
X962Y1191D01*
X960Y1191D01*
X960Y1195D01*
X958Y1195D01*
X958Y1201D01*
X956Y1201D01*
X956Y1213D01*
X958Y1213D01*
X958Y1219D01*
X960Y1219D01*
X960Y1223D01*
X962Y1223D01*
X962Y1227D01*
X964Y1227D01*
X964Y1229D01*
X966Y1229D01*
X966Y1231D01*
X968Y1231D01*
X968Y1233D01*
X970Y1233D01*
X970Y1235D01*
X974Y1235D01*
X974Y1237D01*
X980Y1237D01*
X980Y1239D01*
X104Y1239D01*
G37*
D02*
G36*
X40Y1175D02*
X40Y1173D01*
X2282Y1173D01*
X2282Y1175D01*
X40Y1175D01*
G37*
D02*
G36*
X40Y1175D02*
X40Y1173D01*
X2282Y1173D01*
X2282Y1175D01*
X40Y1175D01*
G37*
D02*
G36*
X40Y1175D02*
X40Y1173D01*
X2282Y1173D01*
X2282Y1175D01*
X40Y1175D01*
G37*
D02*
G36*
X40Y1173D02*
X40Y1139D01*
X1020Y1139D01*
X1020Y1075D01*
X2282Y1075D01*
X2282Y1173D01*
X40Y1173D01*
G37*
D02*
G36*
X40Y1139D02*
X40Y1075D01*
X94Y1075D01*
X94Y1077D01*
X84Y1077D01*
X84Y1079D01*
X80Y1079D01*
X80Y1081D01*
X76Y1081D01*
X76Y1083D01*
X74Y1083D01*
X74Y1085D01*
X72Y1085D01*
X72Y1087D01*
X70Y1087D01*
X70Y1089D01*
X68Y1089D01*
X68Y1091D01*
X66Y1091D01*
X66Y1095D01*
X64Y1095D01*
X64Y1103D01*
X62Y1103D01*
X62Y1113D01*
X64Y1113D01*
X64Y1119D01*
X66Y1119D01*
X66Y1123D01*
X68Y1123D01*
X68Y1127D01*
X70Y1127D01*
X70Y1129D01*
X72Y1129D01*
X72Y1131D01*
X74Y1131D01*
X74Y1133D01*
X76Y1133D01*
X76Y1135D01*
X80Y1135D01*
X80Y1137D01*
X84Y1137D01*
X84Y1139D01*
X40Y1139D01*
G37*
D02*
G36*
X104Y1139D02*
X104Y1137D01*
X110Y1137D01*
X110Y1135D01*
X112Y1135D01*
X112Y1133D01*
X116Y1133D01*
X116Y1131D01*
X118Y1131D01*
X118Y1129D01*
X120Y1129D01*
X120Y1125D01*
X122Y1125D01*
X122Y1121D01*
X124Y1121D01*
X124Y1117D01*
X126Y1117D01*
X126Y1099D01*
X124Y1099D01*
X124Y1095D01*
X122Y1095D01*
X122Y1091D01*
X120Y1091D01*
X120Y1087D01*
X118Y1087D01*
X118Y1085D01*
X116Y1085D01*
X116Y1083D01*
X114Y1083D01*
X114Y1081D01*
X110Y1081D01*
X110Y1079D01*
X106Y1079D01*
X106Y1077D01*
X96Y1077D01*
X96Y1075D01*
X958Y1075D01*
X958Y1077D01*
X956Y1077D01*
X956Y1139D01*
X104Y1139D01*
G37*
D02*
G36*
X40Y1075D02*
X40Y1073D01*
X2282Y1073D01*
X2282Y1075D01*
X40Y1075D01*
G37*
D02*
G36*
X40Y1075D02*
X40Y1073D01*
X2282Y1073D01*
X2282Y1075D01*
X40Y1075D01*
G37*
D02*
G36*
X40Y1075D02*
X40Y1073D01*
X2282Y1073D01*
X2282Y1075D01*
X40Y1075D01*
G37*
D02*
G36*
X40Y1073D02*
X40Y1041D01*
X992Y1041D01*
X992Y1039D01*
X1000Y1039D01*
X1000Y1037D01*
X1004Y1037D01*
X1004Y1035D01*
X1008Y1035D01*
X1008Y1033D01*
X1010Y1033D01*
X1010Y1031D01*
X1012Y1031D01*
X1012Y1029D01*
X1014Y1029D01*
X1014Y1025D01*
X1016Y1025D01*
X1016Y1021D01*
X1018Y1021D01*
X1018Y1017D01*
X1020Y1017D01*
X1020Y1005D01*
X2210Y1005D01*
X2210Y1003D01*
X2218Y1003D01*
X2218Y1001D01*
X2222Y1001D01*
X2222Y999D01*
X2226Y999D01*
X2226Y997D01*
X2230Y997D01*
X2230Y995D01*
X2234Y995D01*
X2234Y993D01*
X2238Y993D01*
X2238Y991D01*
X2240Y991D01*
X2240Y989D01*
X2242Y989D01*
X2242Y987D01*
X2244Y987D01*
X2244Y985D01*
X2246Y985D01*
X2246Y983D01*
X2248Y983D01*
X2248Y981D01*
X2250Y981D01*
X2250Y979D01*
X2252Y979D01*
X2252Y977D01*
X2254Y977D01*
X2254Y973D01*
X2256Y973D01*
X2256Y971D01*
X2258Y971D01*
X2258Y967D01*
X2260Y967D01*
X2260Y963D01*
X2262Y963D01*
X2262Y957D01*
X2282Y957D01*
X2282Y1073D01*
X40Y1073D01*
G37*
D02*
G36*
X40Y1041D02*
X40Y977D01*
X86Y977D01*
X86Y979D01*
X80Y979D01*
X80Y981D01*
X76Y981D01*
X76Y983D01*
X74Y983D01*
X74Y985D01*
X72Y985D01*
X72Y987D01*
X70Y987D01*
X70Y989D01*
X68Y989D01*
X68Y993D01*
X66Y993D01*
X66Y997D01*
X64Y997D01*
X64Y1003D01*
X62Y1003D01*
X62Y1013D01*
X64Y1013D01*
X64Y1021D01*
X66Y1021D01*
X66Y1025D01*
X68Y1025D01*
X68Y1027D01*
X70Y1027D01*
X70Y1029D01*
X72Y1029D01*
X72Y1031D01*
X74Y1031D01*
X74Y1033D01*
X76Y1033D01*
X76Y1035D01*
X78Y1035D01*
X78Y1037D01*
X84Y1037D01*
X84Y1039D01*
X92Y1039D01*
X92Y1041D01*
X40Y1041D01*
G37*
D02*
G36*
X98Y1041D02*
X98Y1039D01*
X106Y1039D01*
X106Y1037D01*
X110Y1037D01*
X110Y1035D01*
X114Y1035D01*
X114Y1033D01*
X116Y1033D01*
X116Y1031D01*
X118Y1031D01*
X118Y1029D01*
X120Y1029D01*
X120Y1025D01*
X122Y1025D01*
X122Y1023D01*
X124Y1023D01*
X124Y1017D01*
X126Y1017D01*
X126Y999D01*
X124Y999D01*
X124Y995D01*
X122Y995D01*
X122Y991D01*
X120Y991D01*
X120Y989D01*
X118Y989D01*
X118Y985D01*
X114Y985D01*
X114Y983D01*
X112Y983D01*
X112Y981D01*
X108Y981D01*
X108Y979D01*
X104Y979D01*
X104Y977D01*
X980Y977D01*
X980Y979D01*
X974Y979D01*
X974Y981D01*
X970Y981D01*
X970Y983D01*
X968Y983D01*
X968Y985D01*
X966Y985D01*
X966Y987D01*
X964Y987D01*
X964Y989D01*
X962Y989D01*
X962Y993D01*
X960Y993D01*
X960Y995D01*
X958Y995D01*
X958Y1003D01*
X956Y1003D01*
X956Y1015D01*
X958Y1015D01*
X958Y1021D01*
X960Y1021D01*
X960Y1025D01*
X962Y1025D01*
X962Y1027D01*
X964Y1027D01*
X964Y1031D01*
X966Y1031D01*
X966Y1033D01*
X970Y1033D01*
X970Y1035D01*
X972Y1035D01*
X972Y1037D01*
X976Y1037D01*
X976Y1039D01*
X986Y1039D01*
X986Y1041D01*
X98Y1041D01*
G37*
D02*
G36*
X1020Y1005D02*
X1020Y1001D01*
X1018Y1001D01*
X1018Y995D01*
X1016Y995D01*
X1016Y991D01*
X1014Y991D01*
X1014Y989D01*
X1012Y989D01*
X1012Y985D01*
X1008Y985D01*
X1008Y983D01*
X1006Y983D01*
X1006Y981D01*
X1002Y981D01*
X1002Y979D01*
X998Y979D01*
X998Y977D01*
X1238Y977D01*
X1238Y981D01*
X1240Y981D01*
X1240Y983D01*
X1242Y983D01*
X1242Y985D01*
X1244Y985D01*
X1244Y987D01*
X1246Y987D01*
X1246Y989D01*
X1250Y989D01*
X1250Y991D01*
X1252Y991D01*
X1252Y993D01*
X1254Y993D01*
X1254Y995D01*
X1258Y995D01*
X1258Y997D01*
X1262Y997D01*
X1262Y999D01*
X1266Y999D01*
X1266Y1001D01*
X1272Y1001D01*
X1272Y1003D01*
X1278Y1003D01*
X1278Y1005D01*
X1020Y1005D01*
G37*
D02*
G36*
X1310Y1005D02*
X1310Y1003D01*
X1318Y1003D01*
X1318Y1001D01*
X1322Y1001D01*
X1322Y999D01*
X1326Y999D01*
X1326Y997D01*
X1330Y997D01*
X1330Y995D01*
X1334Y995D01*
X1334Y993D01*
X1338Y993D01*
X1338Y991D01*
X1340Y991D01*
X1340Y989D01*
X1342Y989D01*
X1342Y987D01*
X1344Y987D01*
X1344Y985D01*
X1346Y985D01*
X1346Y983D01*
X1348Y983D01*
X1348Y981D01*
X1350Y981D01*
X1350Y979D01*
X1352Y979D01*
X1352Y977D01*
X1354Y977D01*
X1354Y973D01*
X1356Y973D01*
X1356Y971D01*
X1358Y971D01*
X1358Y967D01*
X1360Y967D01*
X1360Y963D01*
X1362Y963D01*
X1362Y957D01*
X1364Y957D01*
X1364Y951D01*
X1366Y951D01*
X1366Y941D01*
X1368Y941D01*
X1368Y925D01*
X1366Y925D01*
X1366Y915D01*
X1364Y915D01*
X1364Y909D01*
X1362Y909D01*
X1362Y903D01*
X1360Y903D01*
X1360Y899D01*
X1358Y899D01*
X1358Y895D01*
X1356Y895D01*
X1356Y893D01*
X1354Y893D01*
X1354Y889D01*
X1352Y889D01*
X1352Y887D01*
X1350Y887D01*
X1350Y885D01*
X1348Y885D01*
X1348Y883D01*
X1346Y883D01*
X1346Y881D01*
X1344Y881D01*
X1344Y879D01*
X1342Y879D01*
X1342Y877D01*
X1340Y877D01*
X1340Y875D01*
X1338Y875D01*
X1338Y873D01*
X1334Y873D01*
X1334Y871D01*
X1332Y871D01*
X1332Y869D01*
X1328Y869D01*
X1328Y867D01*
X1324Y867D01*
X1324Y865D01*
X1318Y865D01*
X1318Y863D01*
X1312Y863D01*
X1312Y861D01*
X1296Y861D01*
X1296Y859D01*
X2192Y859D01*
X2192Y861D01*
X2178Y861D01*
X2178Y863D01*
X2172Y863D01*
X2172Y865D01*
X2166Y865D01*
X2166Y867D01*
X2162Y867D01*
X2162Y869D01*
X2158Y869D01*
X2158Y871D01*
X2154Y871D01*
X2154Y873D01*
X2152Y873D01*
X2152Y875D01*
X2148Y875D01*
X2148Y877D01*
X2146Y877D01*
X2146Y879D01*
X2144Y879D01*
X2144Y881D01*
X2142Y881D01*
X2142Y883D01*
X2140Y883D01*
X2140Y885D01*
X2138Y885D01*
X2138Y889D01*
X2136Y889D01*
X2136Y891D01*
X2134Y891D01*
X2134Y893D01*
X2132Y893D01*
X2132Y897D01*
X2130Y897D01*
X2130Y901D01*
X2128Y901D01*
X2128Y905D01*
X2126Y905D01*
X2126Y911D01*
X2124Y911D01*
X2124Y919D01*
X2122Y919D01*
X2122Y947D01*
X2124Y947D01*
X2124Y955D01*
X2126Y955D01*
X2126Y961D01*
X2128Y961D01*
X2128Y965D01*
X2130Y965D01*
X2130Y969D01*
X2132Y969D01*
X2132Y971D01*
X2134Y971D01*
X2134Y975D01*
X2136Y975D01*
X2136Y977D01*
X2138Y977D01*
X2138Y981D01*
X2140Y981D01*
X2140Y983D01*
X2142Y983D01*
X2142Y985D01*
X2144Y985D01*
X2144Y987D01*
X2146Y987D01*
X2146Y989D01*
X2150Y989D01*
X2150Y991D01*
X2152Y991D01*
X2152Y993D01*
X2154Y993D01*
X2154Y995D01*
X2158Y995D01*
X2158Y997D01*
X2162Y997D01*
X2162Y999D01*
X2166Y999D01*
X2166Y1001D01*
X2172Y1001D01*
X2172Y1003D01*
X2178Y1003D01*
X2178Y1005D01*
X1310Y1005D01*
G37*
D02*
G36*
X40Y977D02*
X40Y975D01*
X1236Y975D01*
X1236Y977D01*
X40Y977D01*
G37*
D02*
G36*
X40Y977D02*
X40Y975D01*
X1236Y975D01*
X1236Y977D01*
X40Y977D01*
G37*
D02*
G36*
X40Y977D02*
X40Y975D01*
X1236Y975D01*
X1236Y977D01*
X40Y977D01*
G37*
D02*
G36*
X40Y975D02*
X40Y941D01*
X994Y941D01*
X994Y939D01*
X1000Y939D01*
X1000Y937D01*
X1004Y937D01*
X1004Y935D01*
X1008Y935D01*
X1008Y933D01*
X1010Y933D01*
X1010Y931D01*
X1012Y931D01*
X1012Y929D01*
X1014Y929D01*
X1014Y925D01*
X1016Y925D01*
X1016Y923D01*
X1018Y923D01*
X1018Y917D01*
X1020Y917D01*
X1020Y901D01*
X1018Y901D01*
X1018Y895D01*
X1016Y895D01*
X1016Y891D01*
X1014Y891D01*
X1014Y889D01*
X1012Y889D01*
X1012Y887D01*
X1010Y887D01*
X1010Y885D01*
X1008Y885D01*
X1008Y883D01*
X1006Y883D01*
X1006Y881D01*
X1002Y881D01*
X1002Y879D01*
X996Y879D01*
X996Y877D01*
X1246Y877D01*
X1246Y879D01*
X1244Y879D01*
X1244Y881D01*
X1242Y881D01*
X1242Y883D01*
X1240Y883D01*
X1240Y885D01*
X1238Y885D01*
X1238Y889D01*
X1236Y889D01*
X1236Y891D01*
X1234Y891D01*
X1234Y893D01*
X1232Y893D01*
X1232Y897D01*
X1230Y897D01*
X1230Y901D01*
X1228Y901D01*
X1228Y905D01*
X1226Y905D01*
X1226Y911D01*
X1224Y911D01*
X1224Y919D01*
X1222Y919D01*
X1222Y947D01*
X1224Y947D01*
X1224Y955D01*
X1226Y955D01*
X1226Y961D01*
X1228Y961D01*
X1228Y965D01*
X1230Y965D01*
X1230Y969D01*
X1232Y969D01*
X1232Y971D01*
X1234Y971D01*
X1234Y975D01*
X40Y975D01*
G37*
D02*
G36*
X40Y941D02*
X40Y877D01*
X86Y877D01*
X86Y879D01*
X80Y879D01*
X80Y881D01*
X78Y881D01*
X78Y883D01*
X74Y883D01*
X74Y885D01*
X72Y885D01*
X72Y887D01*
X70Y887D01*
X70Y889D01*
X68Y889D01*
X68Y893D01*
X66Y893D01*
X66Y897D01*
X64Y897D01*
X64Y903D01*
X62Y903D01*
X62Y913D01*
X64Y913D01*
X64Y921D01*
X66Y921D01*
X66Y925D01*
X68Y925D01*
X68Y927D01*
X70Y927D01*
X70Y931D01*
X72Y931D01*
X72Y933D01*
X76Y933D01*
X76Y935D01*
X78Y935D01*
X78Y937D01*
X82Y937D01*
X82Y939D01*
X88Y939D01*
X88Y941D01*
X40Y941D01*
G37*
D02*
G36*
X100Y941D02*
X100Y939D01*
X106Y939D01*
X106Y937D01*
X110Y937D01*
X110Y935D01*
X114Y935D01*
X114Y933D01*
X116Y933D01*
X116Y931D01*
X118Y931D01*
X118Y929D01*
X120Y929D01*
X120Y927D01*
X122Y927D01*
X122Y923D01*
X124Y923D01*
X124Y917D01*
X126Y917D01*
X126Y901D01*
X124Y901D01*
X124Y895D01*
X122Y895D01*
X122Y891D01*
X120Y891D01*
X120Y889D01*
X118Y889D01*
X118Y887D01*
X116Y887D01*
X116Y885D01*
X114Y885D01*
X114Y883D01*
X112Y883D01*
X112Y881D01*
X108Y881D01*
X108Y879D01*
X102Y879D01*
X102Y877D01*
X756Y877D01*
X756Y881D01*
X758Y881D01*
X758Y885D01*
X760Y885D01*
X760Y889D01*
X762Y889D01*
X762Y893D01*
X764Y893D01*
X764Y897D01*
X766Y897D01*
X766Y901D01*
X768Y901D01*
X768Y905D01*
X770Y905D01*
X770Y909D01*
X772Y909D01*
X772Y913D01*
X774Y913D01*
X774Y917D01*
X776Y917D01*
X776Y921D01*
X778Y921D01*
X778Y923D01*
X780Y923D01*
X780Y925D01*
X782Y925D01*
X782Y927D01*
X786Y927D01*
X786Y929D01*
X792Y929D01*
X792Y931D01*
X966Y931D01*
X966Y933D01*
X968Y933D01*
X968Y935D01*
X972Y935D01*
X972Y937D01*
X976Y937D01*
X976Y939D01*
X982Y939D01*
X982Y941D01*
X100Y941D01*
G37*
D02*
G36*
X2262Y909D02*
X2262Y903D01*
X2260Y903D01*
X2260Y899D01*
X2258Y899D01*
X2258Y895D01*
X2256Y895D01*
X2256Y893D01*
X2254Y893D01*
X2254Y889D01*
X2252Y889D01*
X2252Y887D01*
X2250Y887D01*
X2250Y885D01*
X2248Y885D01*
X2248Y883D01*
X2246Y883D01*
X2246Y881D01*
X2244Y881D01*
X2244Y879D01*
X2242Y879D01*
X2242Y877D01*
X2240Y877D01*
X2240Y875D01*
X2238Y875D01*
X2238Y873D01*
X2234Y873D01*
X2234Y871D01*
X2232Y871D01*
X2232Y869D01*
X2228Y869D01*
X2228Y867D01*
X2224Y867D01*
X2224Y865D01*
X2218Y865D01*
X2218Y863D01*
X2212Y863D01*
X2212Y861D01*
X2196Y861D01*
X2196Y859D01*
X2282Y859D01*
X2282Y909D01*
X2262Y909D01*
G37*
D02*
G36*
X808Y887D02*
X808Y883D01*
X806Y883D01*
X806Y879D01*
X804Y879D01*
X804Y877D01*
X980Y877D01*
X980Y879D01*
X974Y879D01*
X974Y881D01*
X972Y881D01*
X972Y883D01*
X968Y883D01*
X968Y885D01*
X966Y885D01*
X966Y887D01*
X808Y887D01*
G37*
D02*
G36*
X40Y877D02*
X40Y875D01*
X754Y875D01*
X754Y877D01*
X40Y877D01*
G37*
D02*
G36*
X40Y877D02*
X40Y875D01*
X754Y875D01*
X754Y877D01*
X40Y877D01*
G37*
D02*
G36*
X804Y877D02*
X804Y875D01*
X1248Y875D01*
X1248Y877D01*
X804Y877D01*
G37*
D02*
G36*
X804Y877D02*
X804Y875D01*
X1248Y875D01*
X1248Y877D01*
X804Y877D01*
G37*
D02*
G36*
X40Y875D02*
X40Y841D01*
X126Y841D01*
X126Y777D01*
X748Y777D01*
X748Y865D01*
X750Y865D01*
X750Y869D01*
X752Y869D01*
X752Y873D01*
X754Y873D01*
X754Y875D01*
X40Y875D01*
G37*
D02*
G36*
X802Y875D02*
X802Y871D01*
X800Y871D01*
X800Y867D01*
X798Y867D01*
X798Y863D01*
X796Y863D01*
X796Y859D01*
X1292Y859D01*
X1292Y861D01*
X1278Y861D01*
X1278Y863D01*
X1272Y863D01*
X1272Y865D01*
X1266Y865D01*
X1266Y867D01*
X1262Y867D01*
X1262Y869D01*
X1258Y869D01*
X1258Y871D01*
X1254Y871D01*
X1254Y873D01*
X1252Y873D01*
X1252Y875D01*
X802Y875D01*
G37*
D02*
G36*
X794Y859D02*
X794Y857D01*
X2282Y857D01*
X2282Y859D01*
X794Y859D01*
G37*
D02*
G36*
X794Y859D02*
X794Y857D01*
X2282Y857D01*
X2282Y859D01*
X794Y859D01*
G37*
D02*
G36*
X794Y859D02*
X794Y857D01*
X2282Y857D01*
X2282Y859D01*
X794Y859D01*
G37*
D02*
G36*
X794Y857D02*
X794Y855D01*
X792Y855D01*
X792Y841D01*
X996Y841D01*
X996Y839D01*
X1002Y839D01*
X1002Y837D01*
X1006Y837D01*
X1006Y835D01*
X1008Y835D01*
X1008Y833D01*
X1010Y833D01*
X1010Y831D01*
X1012Y831D01*
X1012Y829D01*
X1014Y829D01*
X1014Y827D01*
X1016Y827D01*
X1016Y823D01*
X1018Y823D01*
X1018Y817D01*
X1020Y817D01*
X1020Y805D01*
X2256Y805D01*
X2256Y803D01*
X2262Y803D01*
X2262Y801D01*
X2282Y801D01*
X2282Y857D01*
X794Y857D01*
G37*
D02*
G36*
X40Y841D02*
X40Y777D01*
X62Y777D01*
X62Y841D01*
X40Y841D01*
G37*
D02*
G36*
X792Y841D02*
X792Y781D01*
X812Y781D01*
X812Y783D01*
X814Y783D01*
X814Y785D01*
X816Y785D01*
X816Y787D01*
X818Y787D01*
X818Y789D01*
X820Y789D01*
X820Y791D01*
X822Y791D01*
X822Y793D01*
X824Y793D01*
X824Y795D01*
X826Y795D01*
X826Y797D01*
X828Y797D01*
X828Y799D01*
X830Y799D01*
X830Y801D01*
X832Y801D01*
X832Y803D01*
X834Y803D01*
X834Y805D01*
X836Y805D01*
X836Y807D01*
X838Y807D01*
X838Y809D01*
X840Y809D01*
X840Y811D01*
X842Y811D01*
X842Y813D01*
X844Y813D01*
X844Y815D01*
X846Y815D01*
X846Y817D01*
X848Y817D01*
X848Y819D01*
X850Y819D01*
X850Y821D01*
X852Y821D01*
X852Y823D01*
X854Y823D01*
X854Y825D01*
X856Y825D01*
X856Y827D01*
X860Y827D01*
X860Y829D01*
X874Y829D01*
X874Y831D01*
X966Y831D01*
X966Y833D01*
X968Y833D01*
X968Y835D01*
X972Y835D01*
X972Y837D01*
X976Y837D01*
X976Y839D01*
X980Y839D01*
X980Y841D01*
X792Y841D01*
G37*
D02*
G36*
X1020Y805D02*
X1020Y801D01*
X1018Y801D01*
X1018Y795D01*
X1016Y795D01*
X1016Y791D01*
X1014Y791D01*
X1014Y789D01*
X1012Y789D01*
X1012Y787D01*
X1010Y787D01*
X1010Y785D01*
X1008Y785D01*
X1008Y783D01*
X1004Y783D01*
X1004Y781D01*
X1000Y781D01*
X1000Y779D01*
X994Y779D01*
X994Y777D01*
X1102Y777D01*
X1102Y781D01*
X1104Y781D01*
X1104Y785D01*
X1106Y785D01*
X1106Y787D01*
X1108Y787D01*
X1108Y789D01*
X1110Y789D01*
X1110Y791D01*
X1112Y791D01*
X1112Y793D01*
X1114Y793D01*
X1114Y795D01*
X1116Y795D01*
X1116Y797D01*
X1120Y797D01*
X1120Y799D01*
X1122Y799D01*
X1122Y801D01*
X1128Y801D01*
X1128Y803D01*
X1134Y803D01*
X1134Y805D01*
X1020Y805D01*
G37*
D02*
G36*
X1156Y805D02*
X1156Y803D01*
X1162Y803D01*
X1162Y801D01*
X1166Y801D01*
X1166Y799D01*
X1170Y799D01*
X1170Y797D01*
X1172Y797D01*
X1172Y795D01*
X1174Y795D01*
X1174Y793D01*
X1178Y793D01*
X1178Y791D01*
X1180Y791D01*
X1180Y787D01*
X1182Y787D01*
X1182Y785D01*
X1184Y785D01*
X1184Y783D01*
X1186Y783D01*
X1186Y779D01*
X1188Y779D01*
X1188Y773D01*
X1190Y773D01*
X1190Y767D01*
X1192Y767D01*
X1192Y749D01*
X1190Y749D01*
X1190Y743D01*
X1188Y743D01*
X1188Y737D01*
X1186Y737D01*
X1186Y733D01*
X1184Y733D01*
X1184Y731D01*
X1182Y731D01*
X1182Y727D01*
X1180Y727D01*
X1180Y725D01*
X1178Y725D01*
X1178Y723D01*
X1176Y723D01*
X1176Y721D01*
X1172Y721D01*
X1172Y719D01*
X1170Y719D01*
X1170Y717D01*
X1166Y717D01*
X1166Y715D01*
X1162Y715D01*
X1162Y713D01*
X1156Y713D01*
X1156Y711D01*
X1434Y711D01*
X1434Y713D01*
X1426Y713D01*
X1426Y715D01*
X1422Y715D01*
X1422Y717D01*
X1418Y717D01*
X1418Y719D01*
X1416Y719D01*
X1416Y721D01*
X1414Y721D01*
X1414Y723D01*
X1412Y723D01*
X1412Y725D01*
X1410Y725D01*
X1410Y727D01*
X1408Y727D01*
X1408Y729D01*
X1406Y729D01*
X1406Y731D01*
X1404Y731D01*
X1404Y735D01*
X1402Y735D01*
X1402Y739D01*
X1400Y739D01*
X1400Y745D01*
X1398Y745D01*
X1398Y757D01*
X1396Y757D01*
X1396Y759D01*
X1398Y759D01*
X1398Y771D01*
X1400Y771D01*
X1400Y777D01*
X1402Y777D01*
X1402Y781D01*
X1404Y781D01*
X1404Y785D01*
X1406Y785D01*
X1406Y787D01*
X1408Y787D01*
X1408Y789D01*
X1410Y789D01*
X1410Y791D01*
X1412Y791D01*
X1412Y793D01*
X1414Y793D01*
X1414Y795D01*
X1416Y795D01*
X1416Y797D01*
X1420Y797D01*
X1420Y799D01*
X1422Y799D01*
X1422Y801D01*
X1428Y801D01*
X1428Y803D01*
X1434Y803D01*
X1434Y805D01*
X1156Y805D01*
G37*
D02*
G36*
X1456Y805D02*
X1456Y803D01*
X1462Y803D01*
X1462Y801D01*
X1466Y801D01*
X1466Y799D01*
X1470Y799D01*
X1470Y797D01*
X1472Y797D01*
X1472Y795D01*
X1474Y795D01*
X1474Y793D01*
X1478Y793D01*
X1478Y791D01*
X1480Y791D01*
X1480Y787D01*
X1482Y787D01*
X1482Y785D01*
X1484Y785D01*
X1484Y783D01*
X1504Y783D01*
X1504Y785D01*
X1506Y785D01*
X1506Y787D01*
X1508Y787D01*
X1508Y789D01*
X1510Y789D01*
X1510Y791D01*
X1512Y791D01*
X1512Y793D01*
X1514Y793D01*
X1514Y795D01*
X1516Y795D01*
X1516Y797D01*
X1520Y797D01*
X1520Y799D01*
X1522Y799D01*
X1522Y801D01*
X1528Y801D01*
X1528Y803D01*
X1534Y803D01*
X1534Y805D01*
X1456Y805D01*
G37*
D02*
G36*
X1556Y805D02*
X1556Y803D01*
X1562Y803D01*
X1562Y801D01*
X1566Y801D01*
X1566Y799D01*
X1570Y799D01*
X1570Y797D01*
X1572Y797D01*
X1572Y795D01*
X1574Y795D01*
X1574Y793D01*
X1578Y793D01*
X1578Y791D01*
X1580Y791D01*
X1580Y787D01*
X1582Y787D01*
X1582Y785D01*
X1584Y785D01*
X1584Y783D01*
X1586Y783D01*
X1586Y779D01*
X1588Y779D01*
X1588Y773D01*
X1590Y773D01*
X1590Y767D01*
X1592Y767D01*
X1592Y749D01*
X1590Y749D01*
X1590Y743D01*
X1588Y743D01*
X1588Y737D01*
X1586Y737D01*
X1586Y733D01*
X1584Y733D01*
X1584Y731D01*
X1582Y731D01*
X1582Y727D01*
X1580Y727D01*
X1580Y725D01*
X1578Y725D01*
X1578Y723D01*
X1576Y723D01*
X1576Y721D01*
X1572Y721D01*
X1572Y719D01*
X1570Y719D01*
X1570Y717D01*
X1566Y717D01*
X1566Y715D01*
X1562Y715D01*
X1562Y713D01*
X1556Y713D01*
X1556Y711D01*
X1834Y711D01*
X1834Y713D01*
X1826Y713D01*
X1826Y715D01*
X1822Y715D01*
X1822Y717D01*
X1818Y717D01*
X1818Y719D01*
X1816Y719D01*
X1816Y721D01*
X1814Y721D01*
X1814Y723D01*
X1812Y723D01*
X1812Y725D01*
X1810Y725D01*
X1810Y727D01*
X1808Y727D01*
X1808Y729D01*
X1806Y729D01*
X1806Y731D01*
X1804Y731D01*
X1804Y735D01*
X1802Y735D01*
X1802Y739D01*
X1800Y739D01*
X1800Y745D01*
X1798Y745D01*
X1798Y757D01*
X1796Y757D01*
X1796Y759D01*
X1798Y759D01*
X1798Y771D01*
X1800Y771D01*
X1800Y777D01*
X1802Y777D01*
X1802Y781D01*
X1804Y781D01*
X1804Y785D01*
X1806Y785D01*
X1806Y787D01*
X1808Y787D01*
X1808Y789D01*
X1810Y789D01*
X1810Y791D01*
X1812Y791D01*
X1812Y793D01*
X1814Y793D01*
X1814Y795D01*
X1816Y795D01*
X1816Y797D01*
X1820Y797D01*
X1820Y799D01*
X1822Y799D01*
X1822Y801D01*
X1828Y801D01*
X1828Y803D01*
X1834Y803D01*
X1834Y805D01*
X1556Y805D01*
G37*
D02*
G36*
X1856Y805D02*
X1856Y803D01*
X1862Y803D01*
X1862Y801D01*
X1866Y801D01*
X1866Y799D01*
X1870Y799D01*
X1870Y797D01*
X1872Y797D01*
X1872Y795D01*
X1874Y795D01*
X1874Y793D01*
X1878Y793D01*
X1878Y791D01*
X1880Y791D01*
X1880Y787D01*
X1882Y787D01*
X1882Y785D01*
X1884Y785D01*
X1884Y783D01*
X1904Y783D01*
X1904Y785D01*
X1906Y785D01*
X1906Y787D01*
X1908Y787D01*
X1908Y789D01*
X1910Y789D01*
X1910Y791D01*
X1912Y791D01*
X1912Y793D01*
X1914Y793D01*
X1914Y795D01*
X1916Y795D01*
X1916Y797D01*
X1920Y797D01*
X1920Y799D01*
X1922Y799D01*
X1922Y801D01*
X1928Y801D01*
X1928Y803D01*
X1934Y803D01*
X1934Y805D01*
X1856Y805D01*
G37*
D02*
G36*
X1956Y805D02*
X1956Y803D01*
X1962Y803D01*
X1962Y801D01*
X1966Y801D01*
X1966Y799D01*
X1970Y799D01*
X1970Y797D01*
X1972Y797D01*
X1972Y795D01*
X1974Y795D01*
X1974Y793D01*
X1978Y793D01*
X1978Y791D01*
X1980Y791D01*
X1980Y787D01*
X1982Y787D01*
X1982Y785D01*
X1984Y785D01*
X1984Y783D01*
X1986Y783D01*
X1986Y779D01*
X1988Y779D01*
X1988Y773D01*
X1990Y773D01*
X1990Y767D01*
X1992Y767D01*
X1992Y749D01*
X1990Y749D01*
X1990Y743D01*
X1988Y743D01*
X1988Y737D01*
X1986Y737D01*
X1986Y733D01*
X1984Y733D01*
X1984Y731D01*
X1982Y731D01*
X1982Y727D01*
X1980Y727D01*
X1980Y725D01*
X1978Y725D01*
X1978Y723D01*
X1976Y723D01*
X1976Y721D01*
X1972Y721D01*
X1972Y719D01*
X1970Y719D01*
X1970Y717D01*
X1966Y717D01*
X1966Y715D01*
X1962Y715D01*
X1962Y713D01*
X1956Y713D01*
X1956Y711D01*
X2234Y711D01*
X2234Y713D01*
X2226Y713D01*
X2226Y715D01*
X2222Y715D01*
X2222Y717D01*
X2218Y717D01*
X2218Y719D01*
X2216Y719D01*
X2216Y721D01*
X2214Y721D01*
X2214Y723D01*
X2212Y723D01*
X2212Y725D01*
X2210Y725D01*
X2210Y727D01*
X2208Y727D01*
X2208Y729D01*
X2206Y729D01*
X2206Y731D01*
X2204Y731D01*
X2204Y735D01*
X2202Y735D01*
X2202Y739D01*
X2200Y739D01*
X2200Y745D01*
X2198Y745D01*
X2198Y757D01*
X2196Y757D01*
X2196Y759D01*
X2198Y759D01*
X2198Y771D01*
X2200Y771D01*
X2200Y777D01*
X2202Y777D01*
X2202Y781D01*
X2204Y781D01*
X2204Y785D01*
X2206Y785D01*
X2206Y787D01*
X2208Y787D01*
X2208Y789D01*
X2210Y789D01*
X2210Y791D01*
X2212Y791D01*
X2212Y793D01*
X2214Y793D01*
X2214Y795D01*
X2216Y795D01*
X2216Y797D01*
X2220Y797D01*
X2220Y799D01*
X2222Y799D01*
X2222Y801D01*
X2228Y801D01*
X2228Y803D01*
X2234Y803D01*
X2234Y805D01*
X1956Y805D01*
G37*
D02*
G36*
X878Y787D02*
X878Y785D01*
X876Y785D01*
X876Y783D01*
X874Y783D01*
X874Y781D01*
X872Y781D01*
X872Y779D01*
X870Y779D01*
X870Y777D01*
X982Y777D01*
X982Y779D01*
X976Y779D01*
X976Y781D01*
X972Y781D01*
X972Y783D01*
X968Y783D01*
X968Y785D01*
X966Y785D01*
X966Y787D01*
X878Y787D01*
G37*
D02*
G36*
X40Y777D02*
X40Y775D01*
X748Y775D01*
X748Y777D01*
X40Y777D01*
G37*
D02*
G36*
X40Y777D02*
X40Y775D01*
X748Y775D01*
X748Y777D01*
X40Y777D01*
G37*
D02*
G36*
X868Y777D02*
X868Y775D01*
X1100Y775D01*
X1100Y777D01*
X868Y777D01*
G37*
D02*
G36*
X868Y777D02*
X868Y775D01*
X1100Y775D01*
X1100Y777D01*
X868Y777D01*
G37*
D02*
G36*
X40Y775D02*
X40Y741D01*
X104Y741D01*
X104Y739D01*
X108Y739D01*
X108Y737D01*
X112Y737D01*
X112Y735D01*
X114Y735D01*
X114Y733D01*
X118Y733D01*
X118Y729D01*
X120Y729D01*
X120Y727D01*
X122Y727D01*
X122Y723D01*
X124Y723D01*
X124Y719D01*
X126Y719D01*
X126Y701D01*
X124Y701D01*
X124Y695D01*
X122Y695D01*
X122Y693D01*
X120Y693D01*
X120Y689D01*
X118Y689D01*
X118Y687D01*
X116Y687D01*
X116Y685D01*
X114Y685D01*
X114Y683D01*
X110Y683D01*
X110Y681D01*
X106Y681D01*
X106Y679D01*
X98Y679D01*
X98Y677D01*
X748Y677D01*
X748Y775D01*
X40Y775D01*
G37*
D02*
G36*
X866Y775D02*
X866Y773D01*
X864Y773D01*
X864Y771D01*
X862Y771D01*
X862Y769D01*
X860Y769D01*
X860Y767D01*
X858Y767D01*
X858Y765D01*
X856Y765D01*
X856Y763D01*
X854Y763D01*
X854Y761D01*
X852Y761D01*
X852Y759D01*
X850Y759D01*
X850Y757D01*
X848Y757D01*
X848Y753D01*
X846Y753D01*
X846Y751D01*
X844Y751D01*
X844Y749D01*
X842Y749D01*
X842Y741D01*
X998Y741D01*
X998Y739D01*
X1002Y739D01*
X1002Y737D01*
X1006Y737D01*
X1006Y735D01*
X1008Y735D01*
X1008Y733D01*
X1010Y733D01*
X1010Y731D01*
X1012Y731D01*
X1012Y729D01*
X1014Y729D01*
X1014Y727D01*
X1016Y727D01*
X1016Y723D01*
X1018Y723D01*
X1018Y717D01*
X1020Y717D01*
X1020Y711D01*
X1134Y711D01*
X1134Y713D01*
X1126Y713D01*
X1126Y715D01*
X1122Y715D01*
X1122Y717D01*
X1118Y717D01*
X1118Y719D01*
X1116Y719D01*
X1116Y721D01*
X1114Y721D01*
X1114Y723D01*
X1112Y723D01*
X1112Y725D01*
X1110Y725D01*
X1110Y727D01*
X1108Y727D01*
X1108Y729D01*
X1106Y729D01*
X1106Y731D01*
X1104Y731D01*
X1104Y735D01*
X1102Y735D01*
X1102Y739D01*
X1100Y739D01*
X1100Y745D01*
X1098Y745D01*
X1098Y757D01*
X1096Y757D01*
X1096Y759D01*
X1098Y759D01*
X1098Y771D01*
X1100Y771D01*
X1100Y775D01*
X866Y775D01*
G37*
D02*
G36*
X40Y741D02*
X40Y677D01*
X90Y677D01*
X90Y679D01*
X82Y679D01*
X82Y681D01*
X78Y681D01*
X78Y683D01*
X76Y683D01*
X76Y685D01*
X74Y685D01*
X74Y687D01*
X70Y687D01*
X70Y691D01*
X68Y691D01*
X68Y693D01*
X66Y693D01*
X66Y697D01*
X64Y697D01*
X64Y705D01*
X62Y705D01*
X62Y715D01*
X64Y715D01*
X64Y721D01*
X66Y721D01*
X66Y725D01*
X68Y725D01*
X68Y729D01*
X70Y729D01*
X70Y731D01*
X72Y731D01*
X72Y733D01*
X74Y733D01*
X74Y735D01*
X76Y735D01*
X76Y737D01*
X80Y737D01*
X80Y739D01*
X86Y739D01*
X86Y741D01*
X40Y741D01*
G37*
D02*
G36*
X842Y741D02*
X842Y677D01*
X984Y677D01*
X984Y679D01*
X976Y679D01*
X976Y681D01*
X972Y681D01*
X972Y683D01*
X970Y683D01*
X970Y685D01*
X966Y685D01*
X966Y687D01*
X964Y687D01*
X964Y691D01*
X962Y691D01*
X962Y693D01*
X960Y693D01*
X960Y697D01*
X958Y697D01*
X958Y703D01*
X956Y703D01*
X956Y715D01*
X958Y715D01*
X958Y721D01*
X960Y721D01*
X960Y725D01*
X962Y725D01*
X962Y729D01*
X964Y729D01*
X964Y731D01*
X966Y731D01*
X966Y733D01*
X968Y733D01*
X968Y735D01*
X970Y735D01*
X970Y737D01*
X974Y737D01*
X974Y739D01*
X980Y739D01*
X980Y741D01*
X842Y741D01*
G37*
D02*
G36*
X1484Y733D02*
X1484Y731D01*
X1482Y731D01*
X1482Y727D01*
X1480Y727D01*
X1480Y725D01*
X1478Y725D01*
X1478Y723D01*
X1476Y723D01*
X1476Y721D01*
X1472Y721D01*
X1472Y719D01*
X1470Y719D01*
X1470Y717D01*
X1466Y717D01*
X1466Y715D01*
X1462Y715D01*
X1462Y713D01*
X1456Y713D01*
X1456Y711D01*
X1534Y711D01*
X1534Y713D01*
X1526Y713D01*
X1526Y715D01*
X1522Y715D01*
X1522Y717D01*
X1518Y717D01*
X1518Y719D01*
X1516Y719D01*
X1516Y721D01*
X1514Y721D01*
X1514Y723D01*
X1512Y723D01*
X1512Y725D01*
X1510Y725D01*
X1510Y727D01*
X1508Y727D01*
X1508Y729D01*
X1506Y729D01*
X1506Y731D01*
X1504Y731D01*
X1504Y733D01*
X1484Y733D01*
G37*
D02*
G36*
X1884Y733D02*
X1884Y731D01*
X1882Y731D01*
X1882Y727D01*
X1880Y727D01*
X1880Y725D01*
X1878Y725D01*
X1878Y723D01*
X1876Y723D01*
X1876Y721D01*
X1872Y721D01*
X1872Y719D01*
X1870Y719D01*
X1870Y717D01*
X1866Y717D01*
X1866Y715D01*
X1862Y715D01*
X1862Y713D01*
X1856Y713D01*
X1856Y711D01*
X1934Y711D01*
X1934Y713D01*
X1926Y713D01*
X1926Y715D01*
X1922Y715D01*
X1922Y717D01*
X1918Y717D01*
X1918Y719D01*
X1916Y719D01*
X1916Y721D01*
X1914Y721D01*
X1914Y723D01*
X1912Y723D01*
X1912Y725D01*
X1910Y725D01*
X1910Y727D01*
X1908Y727D01*
X1908Y729D01*
X1906Y729D01*
X1906Y731D01*
X1904Y731D01*
X1904Y733D01*
X1884Y733D01*
G37*
D02*
G36*
X2262Y715D02*
X2262Y713D01*
X2256Y713D01*
X2256Y711D01*
X2282Y711D01*
X2282Y715D01*
X2262Y715D01*
G37*
D02*
G36*
X1020Y711D02*
X1020Y709D01*
X2282Y709D01*
X2282Y711D01*
X1020Y711D01*
G37*
D02*
G36*
X1020Y711D02*
X1020Y709D01*
X2282Y709D01*
X2282Y711D01*
X1020Y711D01*
G37*
D02*
G36*
X1020Y711D02*
X1020Y709D01*
X2282Y709D01*
X2282Y711D01*
X1020Y711D01*
G37*
D02*
G36*
X1020Y711D02*
X1020Y709D01*
X2282Y709D01*
X2282Y711D01*
X1020Y711D01*
G37*
D02*
G36*
X1020Y711D02*
X1020Y709D01*
X2282Y709D01*
X2282Y711D01*
X1020Y711D01*
G37*
D02*
G36*
X1020Y711D02*
X1020Y709D01*
X2282Y709D01*
X2282Y711D01*
X1020Y711D01*
G37*
D02*
G36*
X1020Y711D02*
X1020Y709D01*
X2282Y709D01*
X2282Y711D01*
X1020Y711D01*
G37*
D02*
G36*
X1020Y709D02*
X1020Y701D01*
X1018Y701D01*
X1018Y697D01*
X2056Y697D01*
X2056Y695D01*
X2062Y695D01*
X2062Y693D01*
X2066Y693D01*
X2066Y691D01*
X2068Y691D01*
X2068Y689D01*
X2070Y689D01*
X2070Y687D01*
X2074Y687D01*
X2074Y685D01*
X2076Y685D01*
X2076Y681D01*
X2078Y681D01*
X2078Y679D01*
X2080Y679D01*
X2080Y675D01*
X2082Y675D01*
X2082Y671D01*
X2084Y671D01*
X2084Y665D01*
X2086Y665D01*
X2086Y649D01*
X2084Y649D01*
X2084Y641D01*
X2082Y641D01*
X2082Y637D01*
X2080Y637D01*
X2080Y633D01*
X2078Y633D01*
X2078Y631D01*
X2076Y631D01*
X2076Y629D01*
X2074Y629D01*
X2074Y627D01*
X2072Y627D01*
X2072Y625D01*
X2070Y625D01*
X2070Y623D01*
X2068Y623D01*
X2068Y621D01*
X2064Y621D01*
X2064Y619D01*
X2060Y619D01*
X2060Y599D01*
X2086Y599D01*
X2086Y517D01*
X2282Y517D01*
X2282Y709D01*
X1020Y709D01*
G37*
D02*
G36*
X1016Y697D02*
X1016Y693D01*
X1014Y693D01*
X1014Y689D01*
X1012Y689D01*
X1012Y687D01*
X1010Y687D01*
X1010Y685D01*
X1008Y685D01*
X1008Y683D01*
X1004Y683D01*
X1004Y681D01*
X1000Y681D01*
X1000Y679D01*
X992Y679D01*
X992Y677D01*
X1210Y677D01*
X1210Y681D01*
X1212Y681D01*
X1212Y683D01*
X1214Y683D01*
X1214Y685D01*
X1216Y685D01*
X1216Y687D01*
X1218Y687D01*
X1218Y689D01*
X1220Y689D01*
X1220Y691D01*
X1224Y691D01*
X1224Y693D01*
X1228Y693D01*
X1228Y695D01*
X1234Y695D01*
X1234Y697D01*
X1016Y697D01*
G37*
D02*
G36*
X1256Y697D02*
X1256Y695D01*
X1262Y695D01*
X1262Y693D01*
X1266Y693D01*
X1266Y691D01*
X1268Y691D01*
X1268Y689D01*
X1270Y689D01*
X1270Y687D01*
X1274Y687D01*
X1274Y685D01*
X1276Y685D01*
X1276Y681D01*
X1278Y681D01*
X1278Y679D01*
X1280Y679D01*
X1280Y675D01*
X1282Y675D01*
X1282Y671D01*
X1284Y671D01*
X1284Y665D01*
X1286Y665D01*
X1286Y649D01*
X1284Y649D01*
X1284Y641D01*
X1282Y641D01*
X1282Y637D01*
X1280Y637D01*
X1280Y633D01*
X1278Y633D01*
X1278Y631D01*
X1276Y631D01*
X1276Y629D01*
X1274Y629D01*
X1274Y627D01*
X1272Y627D01*
X1272Y625D01*
X1270Y625D01*
X1270Y623D01*
X1268Y623D01*
X1268Y621D01*
X1264Y621D01*
X1264Y619D01*
X1260Y619D01*
X1260Y599D01*
X1286Y599D01*
X1286Y517D01*
X1602Y517D01*
X1602Y599D01*
X1628Y599D01*
X1628Y619D01*
X1624Y619D01*
X1624Y621D01*
X1622Y621D01*
X1622Y623D01*
X1618Y623D01*
X1618Y625D01*
X1616Y625D01*
X1616Y627D01*
X1614Y627D01*
X1614Y629D01*
X1612Y629D01*
X1612Y633D01*
X1610Y633D01*
X1610Y635D01*
X1608Y635D01*
X1608Y639D01*
X1606Y639D01*
X1606Y645D01*
X1604Y645D01*
X1604Y655D01*
X1602Y655D01*
X1602Y657D01*
X1604Y657D01*
X1604Y669D01*
X1606Y669D01*
X1606Y673D01*
X1608Y673D01*
X1608Y677D01*
X1610Y677D01*
X1610Y681D01*
X1612Y681D01*
X1612Y683D01*
X1614Y683D01*
X1614Y685D01*
X1616Y685D01*
X1616Y687D01*
X1618Y687D01*
X1618Y689D01*
X1620Y689D01*
X1620Y691D01*
X1624Y691D01*
X1624Y693D01*
X1628Y693D01*
X1628Y695D01*
X1634Y695D01*
X1634Y697D01*
X1256Y697D01*
G37*
D02*
G36*
X1656Y697D02*
X1656Y695D01*
X1662Y695D01*
X1662Y693D01*
X1666Y693D01*
X1666Y691D01*
X1668Y691D01*
X1668Y689D01*
X1670Y689D01*
X1670Y687D01*
X1674Y687D01*
X1674Y685D01*
X1676Y685D01*
X1676Y681D01*
X1678Y681D01*
X1678Y679D01*
X1680Y679D01*
X1680Y675D01*
X1682Y675D01*
X1682Y671D01*
X1684Y671D01*
X1684Y665D01*
X1686Y665D01*
X1686Y649D01*
X1684Y649D01*
X1684Y641D01*
X1682Y641D01*
X1682Y637D01*
X1680Y637D01*
X1680Y633D01*
X1678Y633D01*
X1678Y631D01*
X1676Y631D01*
X1676Y629D01*
X1674Y629D01*
X1674Y627D01*
X1672Y627D01*
X1672Y625D01*
X1670Y625D01*
X1670Y623D01*
X1668Y623D01*
X1668Y621D01*
X1664Y621D01*
X1664Y619D01*
X1660Y619D01*
X1660Y599D01*
X1686Y599D01*
X1686Y517D01*
X2002Y517D01*
X2002Y599D01*
X2028Y599D01*
X2028Y619D01*
X2024Y619D01*
X2024Y621D01*
X2022Y621D01*
X2022Y623D01*
X2018Y623D01*
X2018Y625D01*
X2016Y625D01*
X2016Y627D01*
X2014Y627D01*
X2014Y629D01*
X2012Y629D01*
X2012Y633D01*
X2010Y633D01*
X2010Y635D01*
X2008Y635D01*
X2008Y639D01*
X2006Y639D01*
X2006Y645D01*
X2004Y645D01*
X2004Y655D01*
X2002Y655D01*
X2002Y657D01*
X2004Y657D01*
X2004Y669D01*
X2006Y669D01*
X2006Y673D01*
X2008Y673D01*
X2008Y677D01*
X2010Y677D01*
X2010Y681D01*
X2012Y681D01*
X2012Y683D01*
X2014Y683D01*
X2014Y685D01*
X2016Y685D01*
X2016Y687D01*
X2018Y687D01*
X2018Y689D01*
X2020Y689D01*
X2020Y691D01*
X2024Y691D01*
X2024Y693D01*
X2028Y693D01*
X2028Y695D01*
X2034Y695D01*
X2034Y697D01*
X1656Y697D01*
G37*
D02*
G36*
X40Y677D02*
X40Y675D01*
X748Y675D01*
X748Y677D01*
X40Y677D01*
G37*
D02*
G36*
X40Y677D02*
X40Y675D01*
X748Y675D01*
X748Y677D01*
X40Y677D01*
G37*
D02*
G36*
X842Y677D02*
X842Y675D01*
X1208Y675D01*
X1208Y677D01*
X842Y677D01*
G37*
D02*
G36*
X842Y677D02*
X842Y675D01*
X1208Y675D01*
X1208Y677D01*
X842Y677D01*
G37*
D02*
G36*
X40Y675D02*
X40Y641D01*
X104Y641D01*
X104Y639D01*
X110Y639D01*
X110Y637D01*
X112Y637D01*
X112Y635D01*
X116Y635D01*
X116Y633D01*
X118Y633D01*
X118Y631D01*
X120Y631D01*
X120Y627D01*
X122Y627D01*
X122Y623D01*
X124Y623D01*
X124Y619D01*
X126Y619D01*
X126Y601D01*
X124Y601D01*
X124Y597D01*
X122Y597D01*
X122Y593D01*
X120Y593D01*
X120Y589D01*
X118Y589D01*
X118Y587D01*
X116Y587D01*
X116Y585D01*
X112Y585D01*
X112Y583D01*
X110Y583D01*
X110Y581D01*
X104Y581D01*
X104Y579D01*
X748Y579D01*
X748Y675D01*
X40Y675D01*
G37*
D02*
G36*
X842Y675D02*
X842Y641D01*
X998Y641D01*
X998Y639D01*
X1004Y639D01*
X1004Y637D01*
X1006Y637D01*
X1006Y635D01*
X1010Y635D01*
X1010Y633D01*
X1012Y633D01*
X1012Y629D01*
X1014Y629D01*
X1014Y627D01*
X1016Y627D01*
X1016Y623D01*
X1018Y623D01*
X1018Y617D01*
X1020Y617D01*
X1020Y603D01*
X1018Y603D01*
X1018Y597D01*
X1016Y597D01*
X1016Y593D01*
X1014Y593D01*
X1014Y591D01*
X1012Y591D01*
X1012Y587D01*
X1010Y587D01*
X1010Y585D01*
X1006Y585D01*
X1006Y583D01*
X1004Y583D01*
X1004Y581D01*
X998Y581D01*
X998Y579D01*
X1202Y579D01*
X1202Y599D01*
X1228Y599D01*
X1228Y619D01*
X1224Y619D01*
X1224Y621D01*
X1222Y621D01*
X1222Y623D01*
X1218Y623D01*
X1218Y625D01*
X1216Y625D01*
X1216Y627D01*
X1214Y627D01*
X1214Y629D01*
X1212Y629D01*
X1212Y633D01*
X1210Y633D01*
X1210Y635D01*
X1208Y635D01*
X1208Y639D01*
X1206Y639D01*
X1206Y645D01*
X1204Y645D01*
X1204Y655D01*
X1202Y655D01*
X1202Y657D01*
X1204Y657D01*
X1204Y669D01*
X1206Y669D01*
X1206Y673D01*
X1208Y673D01*
X1208Y675D01*
X842Y675D01*
G37*
D02*
G36*
X40Y641D02*
X40Y579D01*
X84Y579D01*
X84Y581D01*
X80Y581D01*
X80Y583D01*
X76Y583D01*
X76Y585D01*
X74Y585D01*
X74Y587D01*
X72Y587D01*
X72Y589D01*
X70Y589D01*
X70Y591D01*
X68Y591D01*
X68Y595D01*
X66Y595D01*
X66Y599D01*
X64Y599D01*
X64Y605D01*
X62Y605D01*
X62Y615D01*
X64Y615D01*
X64Y621D01*
X66Y621D01*
X66Y625D01*
X68Y625D01*
X68Y629D01*
X70Y629D01*
X70Y631D01*
X72Y631D01*
X72Y633D01*
X74Y633D01*
X74Y635D01*
X76Y635D01*
X76Y637D01*
X80Y637D01*
X80Y639D01*
X84Y639D01*
X84Y641D01*
X40Y641D01*
G37*
D02*
G36*
X842Y641D02*
X842Y579D01*
X978Y579D01*
X978Y581D01*
X974Y581D01*
X974Y583D01*
X970Y583D01*
X970Y585D01*
X968Y585D01*
X968Y587D01*
X966Y587D01*
X966Y589D01*
X964Y589D01*
X964Y591D01*
X962Y591D01*
X962Y593D01*
X960Y593D01*
X960Y597D01*
X958Y597D01*
X958Y603D01*
X956Y603D01*
X956Y617D01*
X958Y617D01*
X958Y623D01*
X960Y623D01*
X960Y627D01*
X962Y627D01*
X962Y629D01*
X964Y629D01*
X964Y631D01*
X966Y631D01*
X966Y633D01*
X968Y633D01*
X968Y635D01*
X970Y635D01*
X970Y637D01*
X974Y637D01*
X974Y639D01*
X978Y639D01*
X978Y641D01*
X842Y641D01*
G37*
D02*
G36*
X40Y579D02*
X40Y577D01*
X748Y577D01*
X748Y579D01*
X40Y579D01*
G37*
D02*
G36*
X40Y579D02*
X40Y577D01*
X748Y577D01*
X748Y579D01*
X40Y579D01*
G37*
D02*
G36*
X842Y579D02*
X842Y577D01*
X1202Y577D01*
X1202Y579D01*
X842Y579D01*
G37*
D02*
G36*
X842Y579D02*
X842Y577D01*
X1202Y577D01*
X1202Y579D01*
X842Y579D01*
G37*
D02*
G36*
X40Y577D02*
X40Y543D01*
X98Y543D01*
X98Y541D01*
X106Y541D01*
X106Y539D01*
X110Y539D01*
X110Y537D01*
X114Y537D01*
X114Y535D01*
X116Y535D01*
X116Y533D01*
X118Y533D01*
X118Y531D01*
X120Y531D01*
X120Y529D01*
X122Y529D01*
X122Y525D01*
X124Y525D01*
X124Y519D01*
X126Y519D01*
X126Y501D01*
X124Y501D01*
X124Y497D01*
X122Y497D01*
X122Y493D01*
X120Y493D01*
X120Y491D01*
X118Y491D01*
X118Y487D01*
X114Y487D01*
X114Y485D01*
X112Y485D01*
X112Y483D01*
X108Y483D01*
X108Y481D01*
X104Y481D01*
X104Y479D01*
X748Y479D01*
X748Y577D01*
X40Y577D01*
G37*
D02*
G36*
X842Y577D02*
X842Y543D01*
X992Y543D01*
X992Y541D01*
X1000Y541D01*
X1000Y539D01*
X1004Y539D01*
X1004Y537D01*
X1008Y537D01*
X1008Y535D01*
X1010Y535D01*
X1010Y533D01*
X1012Y533D01*
X1012Y531D01*
X1014Y531D01*
X1014Y527D01*
X1016Y527D01*
X1016Y523D01*
X1018Y523D01*
X1018Y519D01*
X1020Y519D01*
X1020Y517D01*
X1202Y517D01*
X1202Y577D01*
X842Y577D01*
G37*
D02*
G36*
X40Y543D02*
X40Y479D01*
X86Y479D01*
X86Y481D01*
X80Y481D01*
X80Y483D01*
X76Y483D01*
X76Y485D01*
X74Y485D01*
X74Y487D01*
X72Y487D01*
X72Y489D01*
X70Y489D01*
X70Y491D01*
X68Y491D01*
X68Y495D01*
X66Y495D01*
X66Y499D01*
X64Y499D01*
X64Y505D01*
X62Y505D01*
X62Y515D01*
X64Y515D01*
X64Y523D01*
X66Y523D01*
X66Y527D01*
X68Y527D01*
X68Y529D01*
X70Y529D01*
X70Y533D01*
X72Y533D01*
X72Y535D01*
X76Y535D01*
X76Y537D01*
X78Y537D01*
X78Y539D01*
X82Y539D01*
X82Y541D01*
X90Y541D01*
X90Y543D01*
X40Y543D01*
G37*
D02*
G36*
X842Y543D02*
X842Y479D01*
X980Y479D01*
X980Y481D01*
X974Y481D01*
X974Y483D01*
X970Y483D01*
X970Y485D01*
X968Y485D01*
X968Y487D01*
X966Y487D01*
X966Y489D01*
X964Y489D01*
X964Y491D01*
X962Y491D01*
X962Y495D01*
X960Y495D01*
X960Y499D01*
X958Y499D01*
X958Y505D01*
X956Y505D01*
X956Y517D01*
X958Y517D01*
X958Y523D01*
X960Y523D01*
X960Y527D01*
X962Y527D01*
X962Y529D01*
X964Y529D01*
X964Y533D01*
X966Y533D01*
X966Y535D01*
X970Y535D01*
X970Y537D01*
X972Y537D01*
X972Y539D01*
X976Y539D01*
X976Y541D01*
X984Y541D01*
X984Y543D01*
X842Y543D01*
G37*
D02*
G36*
X1020Y517D02*
X1020Y515D01*
X2282Y515D01*
X2282Y517D01*
X1020Y517D01*
G37*
D02*
G36*
X1020Y517D02*
X1020Y515D01*
X2282Y515D01*
X2282Y517D01*
X1020Y517D01*
G37*
D02*
G36*
X1020Y517D02*
X1020Y515D01*
X2282Y515D01*
X2282Y517D01*
X1020Y517D01*
G37*
D02*
G36*
X1020Y517D02*
X1020Y515D01*
X2282Y515D01*
X2282Y517D01*
X1020Y517D01*
G37*
D02*
G36*
X1020Y515D02*
X1020Y503D01*
X1018Y503D01*
X1018Y497D01*
X1016Y497D01*
X1016Y493D01*
X1014Y493D01*
X1014Y491D01*
X1012Y491D01*
X1012Y489D01*
X1010Y489D01*
X1010Y487D01*
X1008Y487D01*
X1008Y485D01*
X1006Y485D01*
X1006Y483D01*
X1002Y483D01*
X1002Y481D01*
X998Y481D01*
X998Y479D01*
X2282Y479D01*
X2282Y515D01*
X1020Y515D01*
G37*
D02*
G36*
X40Y479D02*
X40Y477D01*
X748Y477D01*
X748Y479D01*
X40Y479D01*
G37*
D02*
G36*
X40Y479D02*
X40Y477D01*
X748Y477D01*
X748Y479D01*
X40Y479D01*
G37*
D02*
G36*
X842Y479D02*
X842Y477D01*
X2282Y477D01*
X2282Y479D01*
X842Y479D01*
G37*
D02*
G36*
X842Y479D02*
X842Y477D01*
X2282Y477D01*
X2282Y479D01*
X842Y479D01*
G37*
D02*
G36*
X40Y477D02*
X40Y443D01*
X126Y443D01*
X126Y379D01*
X748Y379D01*
X748Y477D01*
X40Y477D01*
G37*
D02*
G36*
X842Y477D02*
X842Y443D01*
X1020Y443D01*
X1020Y405D01*
X2056Y405D01*
X2056Y403D01*
X2062Y403D01*
X2062Y401D01*
X2066Y401D01*
X2066Y399D01*
X2070Y399D01*
X2070Y397D01*
X2072Y397D01*
X2072Y395D01*
X2074Y395D01*
X2074Y393D01*
X2078Y393D01*
X2078Y391D01*
X2080Y391D01*
X2080Y387D01*
X2082Y387D01*
X2082Y385D01*
X2084Y385D01*
X2084Y383D01*
X2086Y383D01*
X2086Y379D01*
X2088Y379D01*
X2088Y373D01*
X2090Y373D01*
X2090Y367D01*
X2092Y367D01*
X2092Y349D01*
X2090Y349D01*
X2090Y343D01*
X2088Y343D01*
X2088Y337D01*
X2086Y337D01*
X2086Y333D01*
X2084Y333D01*
X2084Y331D01*
X2082Y331D01*
X2082Y327D01*
X2080Y327D01*
X2080Y325D01*
X2078Y325D01*
X2078Y323D01*
X2076Y323D01*
X2076Y321D01*
X2072Y321D01*
X2072Y319D01*
X2070Y319D01*
X2070Y317D01*
X2066Y317D01*
X2066Y315D01*
X2062Y315D01*
X2062Y313D01*
X2056Y313D01*
X2056Y311D01*
X2282Y311D01*
X2282Y477D01*
X842Y477D01*
G37*
D02*
G36*
X40Y443D02*
X40Y379D01*
X62Y379D01*
X62Y443D01*
X40Y443D01*
G37*
D02*
G36*
X842Y443D02*
X842Y379D01*
X956Y379D01*
X956Y443D01*
X842Y443D01*
G37*
D02*
G36*
X1020Y405D02*
X1020Y379D01*
X1202Y379D01*
X1202Y381D01*
X1204Y381D01*
X1204Y385D01*
X1206Y385D01*
X1206Y387D01*
X1208Y387D01*
X1208Y389D01*
X1210Y389D01*
X1210Y391D01*
X1212Y391D01*
X1212Y393D01*
X1214Y393D01*
X1214Y395D01*
X1216Y395D01*
X1216Y397D01*
X1220Y397D01*
X1220Y399D01*
X1222Y399D01*
X1222Y401D01*
X1228Y401D01*
X1228Y403D01*
X1234Y403D01*
X1234Y405D01*
X1020Y405D01*
G37*
D02*
G36*
X1256Y405D02*
X1256Y403D01*
X1262Y403D01*
X1262Y401D01*
X1266Y401D01*
X1266Y399D01*
X1270Y399D01*
X1270Y397D01*
X1272Y397D01*
X1272Y395D01*
X1274Y395D01*
X1274Y393D01*
X1278Y393D01*
X1278Y391D01*
X1280Y391D01*
X1280Y387D01*
X1282Y387D01*
X1282Y385D01*
X1284Y385D01*
X1284Y383D01*
X1286Y383D01*
X1286Y379D01*
X1288Y379D01*
X1288Y373D01*
X1290Y373D01*
X1290Y367D01*
X1292Y367D01*
X1292Y349D01*
X1290Y349D01*
X1290Y343D01*
X1288Y343D01*
X1288Y337D01*
X1286Y337D01*
X1286Y333D01*
X1284Y333D01*
X1284Y331D01*
X1282Y331D01*
X1282Y327D01*
X1280Y327D01*
X1280Y325D01*
X1278Y325D01*
X1278Y323D01*
X1276Y323D01*
X1276Y321D01*
X1272Y321D01*
X1272Y319D01*
X1270Y319D01*
X1270Y317D01*
X1266Y317D01*
X1266Y315D01*
X1262Y315D01*
X1262Y313D01*
X1256Y313D01*
X1256Y311D01*
X1534Y311D01*
X1534Y313D01*
X1526Y313D01*
X1526Y315D01*
X1522Y315D01*
X1522Y317D01*
X1518Y317D01*
X1518Y319D01*
X1516Y319D01*
X1516Y321D01*
X1514Y321D01*
X1514Y323D01*
X1512Y323D01*
X1512Y325D01*
X1510Y325D01*
X1510Y327D01*
X1508Y327D01*
X1508Y329D01*
X1506Y329D01*
X1506Y331D01*
X1504Y331D01*
X1504Y335D01*
X1502Y335D01*
X1502Y339D01*
X1500Y339D01*
X1500Y345D01*
X1498Y345D01*
X1498Y357D01*
X1496Y357D01*
X1496Y359D01*
X1498Y359D01*
X1498Y371D01*
X1500Y371D01*
X1500Y377D01*
X1502Y377D01*
X1502Y381D01*
X1504Y381D01*
X1504Y385D01*
X1506Y385D01*
X1506Y387D01*
X1508Y387D01*
X1508Y389D01*
X1510Y389D01*
X1510Y391D01*
X1512Y391D01*
X1512Y393D01*
X1514Y393D01*
X1514Y395D01*
X1516Y395D01*
X1516Y397D01*
X1520Y397D01*
X1520Y399D01*
X1522Y399D01*
X1522Y401D01*
X1528Y401D01*
X1528Y403D01*
X1534Y403D01*
X1534Y405D01*
X1256Y405D01*
G37*
D02*
G36*
X1556Y405D02*
X1556Y403D01*
X1562Y403D01*
X1562Y401D01*
X1566Y401D01*
X1566Y399D01*
X1570Y399D01*
X1570Y397D01*
X1572Y397D01*
X1572Y395D01*
X1574Y395D01*
X1574Y393D01*
X1578Y393D01*
X1578Y391D01*
X1580Y391D01*
X1580Y387D01*
X1582Y387D01*
X1582Y385D01*
X1584Y385D01*
X1584Y383D01*
X1586Y383D01*
X1586Y379D01*
X1588Y379D01*
X1588Y373D01*
X1590Y373D01*
X1590Y367D01*
X1592Y367D01*
X1592Y349D01*
X1590Y349D01*
X1590Y343D01*
X1588Y343D01*
X1588Y337D01*
X1586Y337D01*
X1586Y333D01*
X1584Y333D01*
X1584Y331D01*
X1582Y331D01*
X1582Y327D01*
X1580Y327D01*
X1580Y325D01*
X1578Y325D01*
X1578Y323D01*
X1576Y323D01*
X1576Y321D01*
X1572Y321D01*
X1572Y319D01*
X1570Y319D01*
X1570Y317D01*
X1566Y317D01*
X1566Y315D01*
X1562Y315D01*
X1562Y313D01*
X1556Y313D01*
X1556Y311D01*
X1734Y311D01*
X1734Y313D01*
X1726Y313D01*
X1726Y315D01*
X1722Y315D01*
X1722Y317D01*
X1718Y317D01*
X1718Y319D01*
X1716Y319D01*
X1716Y321D01*
X1714Y321D01*
X1714Y323D01*
X1712Y323D01*
X1712Y325D01*
X1710Y325D01*
X1710Y327D01*
X1708Y327D01*
X1708Y329D01*
X1706Y329D01*
X1706Y331D01*
X1704Y331D01*
X1704Y335D01*
X1702Y335D01*
X1702Y339D01*
X1700Y339D01*
X1700Y345D01*
X1698Y345D01*
X1698Y357D01*
X1696Y357D01*
X1696Y359D01*
X1698Y359D01*
X1698Y371D01*
X1700Y371D01*
X1700Y377D01*
X1702Y377D01*
X1702Y381D01*
X1704Y381D01*
X1704Y385D01*
X1706Y385D01*
X1706Y387D01*
X1708Y387D01*
X1708Y389D01*
X1710Y389D01*
X1710Y391D01*
X1712Y391D01*
X1712Y393D01*
X1714Y393D01*
X1714Y395D01*
X1716Y395D01*
X1716Y397D01*
X1720Y397D01*
X1720Y399D01*
X1722Y399D01*
X1722Y401D01*
X1728Y401D01*
X1728Y403D01*
X1734Y403D01*
X1734Y405D01*
X1556Y405D01*
G37*
D02*
G36*
X1756Y405D02*
X1756Y403D01*
X1762Y403D01*
X1762Y401D01*
X1766Y401D01*
X1766Y399D01*
X1770Y399D01*
X1770Y397D01*
X1772Y397D01*
X1772Y395D01*
X1774Y395D01*
X1774Y393D01*
X1778Y393D01*
X1778Y391D01*
X1780Y391D01*
X1780Y387D01*
X1782Y387D01*
X1782Y385D01*
X1784Y385D01*
X1784Y383D01*
X1786Y383D01*
X1786Y379D01*
X1788Y379D01*
X1788Y373D01*
X1790Y373D01*
X1790Y367D01*
X1792Y367D01*
X1792Y349D01*
X1790Y349D01*
X1790Y343D01*
X1788Y343D01*
X1788Y337D01*
X1786Y337D01*
X1786Y333D01*
X1784Y333D01*
X1784Y331D01*
X1782Y331D01*
X1782Y327D01*
X1780Y327D01*
X1780Y325D01*
X1778Y325D01*
X1778Y323D01*
X1776Y323D01*
X1776Y321D01*
X1772Y321D01*
X1772Y319D01*
X1770Y319D01*
X1770Y317D01*
X1766Y317D01*
X1766Y315D01*
X1762Y315D01*
X1762Y313D01*
X1756Y313D01*
X1756Y311D01*
X2034Y311D01*
X2034Y313D01*
X2026Y313D01*
X2026Y315D01*
X2022Y315D01*
X2022Y317D01*
X2018Y317D01*
X2018Y319D01*
X2016Y319D01*
X2016Y321D01*
X2014Y321D01*
X2014Y323D01*
X2012Y323D01*
X2012Y325D01*
X2010Y325D01*
X2010Y327D01*
X2008Y327D01*
X2008Y329D01*
X2006Y329D01*
X2006Y331D01*
X2004Y331D01*
X2004Y335D01*
X2002Y335D01*
X2002Y339D01*
X2000Y339D01*
X2000Y345D01*
X1998Y345D01*
X1998Y357D01*
X1996Y357D01*
X1996Y359D01*
X1998Y359D01*
X1998Y371D01*
X2000Y371D01*
X2000Y377D01*
X2002Y377D01*
X2002Y381D01*
X2004Y381D01*
X2004Y385D01*
X2006Y385D01*
X2006Y387D01*
X2008Y387D01*
X2008Y389D01*
X2010Y389D01*
X2010Y391D01*
X2012Y391D01*
X2012Y393D01*
X2014Y393D01*
X2014Y395D01*
X2016Y395D01*
X2016Y397D01*
X2020Y397D01*
X2020Y399D01*
X2022Y399D01*
X2022Y401D01*
X2028Y401D01*
X2028Y403D01*
X2034Y403D01*
X2034Y405D01*
X1756Y405D01*
G37*
D02*
G36*
X40Y379D02*
X40Y377D01*
X748Y377D01*
X748Y379D01*
X40Y379D01*
G37*
D02*
G36*
X40Y379D02*
X40Y377D01*
X748Y377D01*
X748Y379D01*
X40Y379D01*
G37*
D02*
G36*
X842Y379D02*
X842Y377D01*
X1202Y377D01*
X1202Y379D01*
X842Y379D01*
G37*
D02*
G36*
X842Y379D02*
X842Y377D01*
X1202Y377D01*
X1202Y379D01*
X842Y379D01*
G37*
D02*
G36*
X40Y377D02*
X40Y343D01*
X102Y343D01*
X102Y341D01*
X108Y341D01*
X108Y339D01*
X112Y339D01*
X112Y337D01*
X114Y337D01*
X114Y335D01*
X116Y335D01*
X116Y333D01*
X118Y333D01*
X118Y331D01*
X120Y331D01*
X120Y329D01*
X122Y329D01*
X122Y325D01*
X124Y325D01*
X124Y319D01*
X126Y319D01*
X126Y303D01*
X124Y303D01*
X124Y297D01*
X122Y297D01*
X122Y293D01*
X120Y293D01*
X120Y291D01*
X118Y291D01*
X118Y289D01*
X116Y289D01*
X116Y287D01*
X114Y287D01*
X114Y285D01*
X110Y285D01*
X110Y283D01*
X106Y283D01*
X106Y281D01*
X100Y281D01*
X100Y279D01*
X748Y279D01*
X748Y377D01*
X40Y377D01*
G37*
D02*
G36*
X842Y377D02*
X842Y343D01*
X996Y343D01*
X996Y341D01*
X1002Y341D01*
X1002Y339D01*
X1006Y339D01*
X1006Y337D01*
X1008Y337D01*
X1008Y335D01*
X1010Y335D01*
X1010Y333D01*
X1012Y333D01*
X1012Y331D01*
X1014Y331D01*
X1014Y329D01*
X1016Y329D01*
X1016Y325D01*
X1018Y325D01*
X1018Y319D01*
X1020Y319D01*
X1020Y311D01*
X1234Y311D01*
X1234Y313D01*
X1226Y313D01*
X1226Y315D01*
X1222Y315D01*
X1222Y317D01*
X1218Y317D01*
X1218Y319D01*
X1216Y319D01*
X1216Y321D01*
X1214Y321D01*
X1214Y323D01*
X1212Y323D01*
X1212Y325D01*
X1210Y325D01*
X1210Y327D01*
X1208Y327D01*
X1208Y329D01*
X1206Y329D01*
X1206Y331D01*
X1204Y331D01*
X1204Y335D01*
X1202Y335D01*
X1202Y339D01*
X1200Y339D01*
X1200Y345D01*
X1198Y345D01*
X1198Y357D01*
X1196Y357D01*
X1196Y359D01*
X1198Y359D01*
X1198Y371D01*
X1200Y371D01*
X1200Y377D01*
X842Y377D01*
G37*
D02*
G36*
X40Y343D02*
X40Y279D01*
X88Y279D01*
X88Y281D01*
X82Y281D01*
X82Y283D01*
X78Y283D01*
X78Y285D01*
X76Y285D01*
X76Y287D01*
X72Y287D01*
X72Y289D01*
X70Y289D01*
X70Y293D01*
X68Y293D01*
X68Y295D01*
X66Y295D01*
X66Y299D01*
X64Y299D01*
X64Y307D01*
X62Y307D01*
X62Y317D01*
X64Y317D01*
X64Y323D01*
X66Y323D01*
X66Y327D01*
X68Y327D01*
X68Y331D01*
X70Y331D01*
X70Y333D01*
X72Y333D01*
X72Y335D01*
X74Y335D01*
X74Y337D01*
X78Y337D01*
X78Y339D01*
X80Y339D01*
X80Y341D01*
X86Y341D01*
X86Y343D01*
X40Y343D01*
G37*
D02*
G36*
X842Y343D02*
X842Y337D01*
X844Y337D01*
X844Y335D01*
X846Y335D01*
X846Y331D01*
X848Y331D01*
X848Y329D01*
X850Y329D01*
X850Y325D01*
X852Y325D01*
X852Y323D01*
X854Y323D01*
X854Y319D01*
X856Y319D01*
X856Y317D01*
X858Y317D01*
X858Y313D01*
X860Y313D01*
X860Y311D01*
X862Y311D01*
X862Y307D01*
X864Y307D01*
X864Y305D01*
X866Y305D01*
X866Y301D01*
X868Y301D01*
X868Y299D01*
X870Y299D01*
X870Y295D01*
X872Y295D01*
X872Y293D01*
X874Y293D01*
X874Y289D01*
X876Y289D01*
X876Y285D01*
X878Y285D01*
X878Y283D01*
X880Y283D01*
X880Y279D01*
X960Y279D01*
X960Y299D01*
X958Y299D01*
X958Y305D01*
X956Y305D01*
X956Y317D01*
X958Y317D01*
X958Y323D01*
X960Y323D01*
X960Y327D01*
X962Y327D01*
X962Y331D01*
X964Y331D01*
X964Y333D01*
X966Y333D01*
X966Y335D01*
X968Y335D01*
X968Y337D01*
X970Y337D01*
X970Y339D01*
X974Y339D01*
X974Y341D01*
X980Y341D01*
X980Y343D01*
X842Y343D01*
G37*
D02*
G36*
X1020Y311D02*
X1020Y309D01*
X2282Y309D01*
X2282Y311D01*
X1020Y311D01*
G37*
D02*
G36*
X1020Y311D02*
X1020Y309D01*
X2282Y309D01*
X2282Y311D01*
X1020Y311D01*
G37*
D02*
G36*
X1020Y311D02*
X1020Y309D01*
X2282Y309D01*
X2282Y311D01*
X1020Y311D01*
G37*
D02*
G36*
X1020Y311D02*
X1020Y309D01*
X2282Y309D01*
X2282Y311D01*
X1020Y311D01*
G37*
D02*
G36*
X1020Y311D02*
X1020Y309D01*
X2282Y309D01*
X2282Y311D01*
X1020Y311D01*
G37*
D02*
G36*
X1020Y309D02*
X1020Y303D01*
X1018Y303D01*
X1018Y283D01*
X2006Y283D01*
X2006Y281D01*
X2014Y281D01*
X2014Y279D01*
X2020Y279D01*
X2020Y277D01*
X2024Y277D01*
X2024Y275D01*
X2028Y275D01*
X2028Y273D01*
X2030Y273D01*
X2030Y271D01*
X2032Y271D01*
X2032Y269D01*
X2034Y269D01*
X2034Y267D01*
X2036Y267D01*
X2036Y265D01*
X2038Y265D01*
X2038Y263D01*
X2040Y263D01*
X2040Y259D01*
X2042Y259D01*
X2042Y255D01*
X2044Y255D01*
X2044Y251D01*
X2046Y251D01*
X2046Y243D01*
X2048Y243D01*
X2048Y231D01*
X2254Y231D01*
X2254Y229D01*
X2282Y229D01*
X2282Y309D01*
X1020Y309D01*
G37*
D02*
G36*
X1018Y283D02*
X1018Y279D01*
X1202Y279D01*
X1202Y277D01*
X1224Y277D01*
X1224Y279D01*
X1230Y279D01*
X1230Y281D01*
X1238Y281D01*
X1238Y283D01*
X1018Y283D01*
G37*
D02*
G36*
X1250Y283D02*
X1250Y281D01*
X1260Y281D01*
X1260Y279D01*
X1264Y279D01*
X1264Y277D01*
X1268Y277D01*
X1268Y275D01*
X1272Y275D01*
X1272Y273D01*
X1274Y273D01*
X1274Y271D01*
X1276Y271D01*
X1276Y269D01*
X1278Y269D01*
X1278Y267D01*
X1280Y267D01*
X1280Y265D01*
X1282Y265D01*
X1282Y263D01*
X1284Y263D01*
X1284Y259D01*
X1286Y259D01*
X1286Y255D01*
X1288Y255D01*
X1288Y251D01*
X1290Y251D01*
X1290Y243D01*
X1292Y243D01*
X1292Y227D01*
X1290Y227D01*
X1290Y219D01*
X1288Y219D01*
X1288Y215D01*
X1286Y215D01*
X1286Y211D01*
X1284Y211D01*
X1284Y207D01*
X1282Y207D01*
X1282Y205D01*
X1280Y205D01*
X1280Y203D01*
X1278Y203D01*
X1278Y201D01*
X1276Y201D01*
X1276Y199D01*
X1274Y199D01*
X1274Y179D01*
X1444Y179D01*
X1444Y181D01*
X1468Y181D01*
X1468Y201D01*
X1466Y201D01*
X1466Y203D01*
X1464Y203D01*
X1464Y207D01*
X1462Y207D01*
X1462Y209D01*
X1460Y209D01*
X1460Y213D01*
X1458Y213D01*
X1458Y215D01*
X1456Y215D01*
X1456Y221D01*
X1454Y221D01*
X1454Y233D01*
X1452Y233D01*
X1452Y237D01*
X1454Y237D01*
X1454Y249D01*
X1456Y249D01*
X1456Y255D01*
X1458Y255D01*
X1458Y257D01*
X1460Y257D01*
X1460Y261D01*
X1462Y261D01*
X1462Y265D01*
X1464Y265D01*
X1464Y267D01*
X1466Y267D01*
X1466Y269D01*
X1468Y269D01*
X1468Y271D01*
X1470Y271D01*
X1470Y273D01*
X1474Y273D01*
X1474Y275D01*
X1476Y275D01*
X1476Y277D01*
X1480Y277D01*
X1480Y279D01*
X1486Y279D01*
X1486Y281D01*
X1494Y281D01*
X1494Y283D01*
X1250Y283D01*
G37*
D02*
G36*
X1506Y283D02*
X1506Y281D01*
X1514Y281D01*
X1514Y279D01*
X1520Y279D01*
X1520Y277D01*
X1524Y277D01*
X1524Y275D01*
X1528Y275D01*
X1528Y273D01*
X1530Y273D01*
X1530Y271D01*
X1532Y271D01*
X1532Y269D01*
X1534Y269D01*
X1534Y267D01*
X1536Y267D01*
X1536Y265D01*
X1538Y265D01*
X1538Y263D01*
X1540Y263D01*
X1540Y259D01*
X1542Y259D01*
X1542Y255D01*
X1544Y255D01*
X1544Y251D01*
X1546Y251D01*
X1546Y243D01*
X1548Y243D01*
X1548Y227D01*
X1546Y227D01*
X1546Y219D01*
X1544Y219D01*
X1544Y215D01*
X1542Y215D01*
X1542Y211D01*
X1540Y211D01*
X1540Y207D01*
X1538Y207D01*
X1538Y205D01*
X1536Y205D01*
X1536Y203D01*
X1534Y203D01*
X1534Y201D01*
X1532Y201D01*
X1532Y181D01*
X1684Y181D01*
X1684Y185D01*
X1686Y185D01*
X1686Y187D01*
X1688Y187D01*
X1688Y191D01*
X1690Y191D01*
X1690Y193D01*
X1692Y193D01*
X1692Y197D01*
X1694Y197D01*
X1694Y199D01*
X1696Y199D01*
X1696Y203D01*
X1698Y203D01*
X1698Y233D01*
X1696Y233D01*
X1696Y237D01*
X1698Y237D01*
X1698Y247D01*
X1700Y247D01*
X1700Y255D01*
X1702Y255D01*
X1702Y257D01*
X1704Y257D01*
X1704Y261D01*
X1706Y261D01*
X1706Y263D01*
X1708Y263D01*
X1708Y267D01*
X1710Y267D01*
X1710Y269D01*
X1712Y269D01*
X1712Y271D01*
X1714Y271D01*
X1714Y273D01*
X1718Y273D01*
X1718Y275D01*
X1720Y275D01*
X1720Y277D01*
X1724Y277D01*
X1724Y279D01*
X1730Y279D01*
X1730Y281D01*
X1738Y281D01*
X1738Y283D01*
X1506Y283D01*
G37*
D02*
G36*
X1750Y283D02*
X1750Y281D01*
X1760Y281D01*
X1760Y279D01*
X1764Y279D01*
X1764Y277D01*
X1768Y277D01*
X1768Y275D01*
X1772Y275D01*
X1772Y273D01*
X1774Y273D01*
X1774Y271D01*
X1776Y271D01*
X1776Y269D01*
X1778Y269D01*
X1778Y267D01*
X1780Y267D01*
X1780Y265D01*
X1782Y265D01*
X1782Y263D01*
X1784Y263D01*
X1784Y259D01*
X1786Y259D01*
X1786Y255D01*
X1788Y255D01*
X1788Y251D01*
X1790Y251D01*
X1790Y243D01*
X1792Y243D01*
X1792Y227D01*
X1790Y227D01*
X1790Y219D01*
X1788Y219D01*
X1788Y215D01*
X1786Y215D01*
X1786Y211D01*
X1784Y211D01*
X1784Y207D01*
X1782Y207D01*
X1782Y205D01*
X1780Y205D01*
X1780Y203D01*
X1778Y203D01*
X1778Y201D01*
X1776Y201D01*
X1776Y199D01*
X1774Y199D01*
X1774Y197D01*
X1772Y197D01*
X1772Y195D01*
X1768Y195D01*
X1768Y193D01*
X1764Y193D01*
X1764Y191D01*
X1758Y191D01*
X1758Y189D01*
X1750Y189D01*
X1750Y187D01*
X1994Y187D01*
X1994Y189D01*
X1986Y189D01*
X1986Y191D01*
X1980Y191D01*
X1980Y193D01*
X1976Y193D01*
X1976Y195D01*
X1974Y195D01*
X1974Y197D01*
X1972Y197D01*
X1972Y199D01*
X1968Y199D01*
X1968Y201D01*
X1966Y201D01*
X1966Y203D01*
X1964Y203D01*
X1964Y207D01*
X1962Y207D01*
X1962Y209D01*
X1960Y209D01*
X1960Y213D01*
X1958Y213D01*
X1958Y215D01*
X1956Y215D01*
X1956Y221D01*
X1954Y221D01*
X1954Y233D01*
X1952Y233D01*
X1952Y237D01*
X1954Y237D01*
X1954Y249D01*
X1956Y249D01*
X1956Y255D01*
X1958Y255D01*
X1958Y257D01*
X1960Y257D01*
X1960Y261D01*
X1962Y261D01*
X1962Y263D01*
X1964Y263D01*
X1964Y267D01*
X1966Y267D01*
X1966Y269D01*
X1968Y269D01*
X1968Y271D01*
X1970Y271D01*
X1970Y273D01*
X1974Y273D01*
X1974Y275D01*
X1976Y275D01*
X1976Y277D01*
X1980Y277D01*
X1980Y279D01*
X1986Y279D01*
X1986Y281D01*
X1994Y281D01*
X1994Y283D01*
X1750Y283D01*
G37*
D02*
G36*
X40Y279D02*
X40Y277D01*
X748Y277D01*
X748Y279D01*
X40Y279D01*
G37*
D02*
G36*
X40Y279D02*
X40Y277D01*
X748Y277D01*
X748Y279D01*
X40Y279D01*
G37*
D02*
G36*
X40Y277D02*
X40Y221D01*
X148Y221D01*
X148Y219D01*
X154Y219D01*
X154Y217D01*
X160Y217D01*
X160Y215D01*
X164Y215D01*
X164Y213D01*
X168Y213D01*
X168Y211D01*
X172Y211D01*
X172Y209D01*
X176Y209D01*
X176Y207D01*
X178Y207D01*
X178Y205D01*
X180Y205D01*
X180Y203D01*
X182Y203D01*
X182Y201D01*
X186Y201D01*
X186Y197D01*
X188Y197D01*
X188Y195D01*
X190Y195D01*
X190Y193D01*
X192Y193D01*
X192Y191D01*
X194Y191D01*
X194Y187D01*
X196Y187D01*
X196Y183D01*
X198Y183D01*
X198Y179D01*
X200Y179D01*
X200Y175D01*
X202Y175D01*
X202Y169D01*
X204Y169D01*
X204Y161D01*
X206Y161D01*
X206Y135D01*
X204Y135D01*
X204Y127D01*
X202Y127D01*
X202Y121D01*
X200Y121D01*
X200Y117D01*
X198Y117D01*
X198Y113D01*
X196Y113D01*
X196Y109D01*
X194Y109D01*
X194Y107D01*
X192Y107D01*
X192Y103D01*
X190Y103D01*
X190Y101D01*
X188Y101D01*
X188Y99D01*
X186Y99D01*
X186Y97D01*
X184Y97D01*
X184Y95D01*
X182Y95D01*
X182Y93D01*
X180Y93D01*
X180Y91D01*
X176Y91D01*
X176Y89D01*
X174Y89D01*
X174Y87D01*
X170Y87D01*
X170Y85D01*
X168Y85D01*
X168Y83D01*
X164Y83D01*
X164Y81D01*
X158Y81D01*
X158Y79D01*
X152Y79D01*
X152Y77D01*
X142Y77D01*
X142Y75D01*
X770Y75D01*
X770Y77D01*
X768Y77D01*
X768Y79D01*
X766Y79D01*
X766Y81D01*
X764Y81D01*
X764Y83D01*
X762Y83D01*
X762Y85D01*
X760Y85D01*
X760Y87D01*
X758Y87D01*
X758Y89D01*
X756Y89D01*
X756Y91D01*
X754Y91D01*
X754Y93D01*
X752Y93D01*
X752Y97D01*
X750Y97D01*
X750Y101D01*
X748Y101D01*
X748Y277D01*
X40Y277D01*
G37*
D02*
G36*
X2048Y231D02*
X2048Y227D01*
X2046Y227D01*
X2046Y219D01*
X2044Y219D01*
X2044Y215D01*
X2042Y215D01*
X2042Y211D01*
X2040Y211D01*
X2040Y207D01*
X2038Y207D01*
X2038Y205D01*
X2036Y205D01*
X2036Y203D01*
X2034Y203D01*
X2034Y201D01*
X2032Y201D01*
X2032Y199D01*
X2030Y199D01*
X2030Y197D01*
X2028Y197D01*
X2028Y195D01*
X2024Y195D01*
X2024Y193D01*
X2020Y193D01*
X2020Y191D01*
X2014Y191D01*
X2014Y189D01*
X2006Y189D01*
X2006Y187D01*
X2178Y187D01*
X2178Y189D01*
X2180Y189D01*
X2180Y193D01*
X2182Y193D01*
X2182Y197D01*
X2184Y197D01*
X2184Y201D01*
X2186Y201D01*
X2186Y203D01*
X2188Y203D01*
X2188Y205D01*
X2190Y205D01*
X2190Y207D01*
X2192Y207D01*
X2192Y209D01*
X2194Y209D01*
X2194Y211D01*
X2196Y211D01*
X2196Y213D01*
X2198Y213D01*
X2198Y215D01*
X2200Y215D01*
X2200Y217D01*
X2204Y217D01*
X2204Y219D01*
X2206Y219D01*
X2206Y221D01*
X2210Y221D01*
X2210Y223D01*
X2214Y223D01*
X2214Y225D01*
X2218Y225D01*
X2218Y227D01*
X2224Y227D01*
X2224Y229D01*
X2234Y229D01*
X2234Y231D01*
X2048Y231D01*
G37*
D02*
G36*
X40Y221D02*
X40Y75D01*
X126Y75D01*
X126Y77D01*
X116Y77D01*
X116Y79D01*
X108Y79D01*
X108Y81D01*
X104Y81D01*
X104Y83D01*
X100Y83D01*
X100Y85D01*
X96Y85D01*
X96Y87D01*
X92Y87D01*
X92Y89D01*
X90Y89D01*
X90Y91D01*
X88Y91D01*
X88Y93D01*
X84Y93D01*
X84Y95D01*
X82Y95D01*
X82Y97D01*
X80Y97D01*
X80Y99D01*
X78Y99D01*
X78Y103D01*
X76Y103D01*
X76Y105D01*
X74Y105D01*
X74Y107D01*
X72Y107D01*
X72Y111D01*
X70Y111D01*
X70Y115D01*
X68Y115D01*
X68Y119D01*
X66Y119D01*
X66Y123D01*
X64Y123D01*
X64Y131D01*
X62Y131D01*
X62Y139D01*
X60Y139D01*
X60Y157D01*
X62Y157D01*
X62Y167D01*
X64Y167D01*
X64Y173D01*
X66Y173D01*
X66Y179D01*
X68Y179D01*
X68Y183D01*
X70Y183D01*
X70Y185D01*
X72Y185D01*
X72Y189D01*
X74Y189D01*
X74Y191D01*
X76Y191D01*
X76Y195D01*
X78Y195D01*
X78Y197D01*
X80Y197D01*
X80Y199D01*
X82Y199D01*
X82Y201D01*
X84Y201D01*
X84Y203D01*
X86Y203D01*
X86Y205D01*
X88Y205D01*
X88Y207D01*
X92Y207D01*
X92Y209D01*
X94Y209D01*
X94Y211D01*
X98Y211D01*
X98Y213D01*
X102Y213D01*
X102Y215D01*
X106Y215D01*
X106Y217D01*
X112Y217D01*
X112Y219D01*
X120Y219D01*
X120Y221D01*
X40Y221D01*
G37*
D02*
G36*
X1738Y187D02*
X1738Y185D01*
X2178Y185D01*
X2178Y187D01*
X1738Y187D01*
G37*
D02*
G36*
X1738Y187D02*
X1738Y185D01*
X2178Y185D01*
X2178Y187D01*
X1738Y187D01*
G37*
D02*
G36*
X1738Y185D02*
X1738Y183D01*
X1736Y183D01*
X1736Y181D01*
X1734Y181D01*
X1734Y177D01*
X1732Y177D01*
X1732Y175D01*
X1730Y175D01*
X1730Y171D01*
X1728Y171D01*
X1728Y169D01*
X1726Y169D01*
X1726Y165D01*
X1724Y165D01*
X1724Y163D01*
X1722Y163D01*
X1722Y159D01*
X1720Y159D01*
X1720Y155D01*
X1718Y155D01*
X1718Y153D01*
X1716Y153D01*
X1716Y149D01*
X1714Y149D01*
X1714Y147D01*
X1712Y147D01*
X1712Y145D01*
X1710Y145D01*
X1710Y141D01*
X1706Y141D01*
X1706Y139D01*
X1702Y139D01*
X1702Y137D01*
X1458Y137D01*
X1458Y135D01*
X1224Y135D01*
X1224Y133D01*
X1220Y133D01*
X1220Y131D01*
X1218Y131D01*
X1218Y129D01*
X1214Y129D01*
X1214Y127D01*
X1212Y127D01*
X1212Y125D01*
X1208Y125D01*
X1208Y123D01*
X1206Y123D01*
X1206Y121D01*
X1202Y121D01*
X1202Y119D01*
X1200Y119D01*
X1200Y117D01*
X1196Y117D01*
X1196Y115D01*
X1194Y115D01*
X1194Y113D01*
X1190Y113D01*
X1190Y111D01*
X1188Y111D01*
X1188Y109D01*
X1184Y109D01*
X1184Y107D01*
X1182Y107D01*
X1182Y105D01*
X2010Y105D01*
X2010Y103D01*
X2018Y103D01*
X2018Y101D01*
X2022Y101D01*
X2022Y99D01*
X2026Y99D01*
X2026Y97D01*
X2028Y97D01*
X2028Y95D01*
X2030Y95D01*
X2030Y93D01*
X2034Y93D01*
X2034Y91D01*
X2036Y91D01*
X2036Y87D01*
X2038Y87D01*
X2038Y85D01*
X2232Y85D01*
X2232Y87D01*
X2224Y87D01*
X2224Y89D01*
X2218Y89D01*
X2218Y91D01*
X2214Y91D01*
X2214Y93D01*
X2210Y93D01*
X2210Y95D01*
X2206Y95D01*
X2206Y97D01*
X2202Y97D01*
X2202Y99D01*
X2200Y99D01*
X2200Y101D01*
X2198Y101D01*
X2198Y103D01*
X2196Y103D01*
X2196Y105D01*
X2194Y105D01*
X2194Y107D01*
X2192Y107D01*
X2192Y109D01*
X2190Y109D01*
X2190Y111D01*
X2188Y111D01*
X2188Y113D01*
X2186Y113D01*
X2186Y115D01*
X2184Y115D01*
X2184Y119D01*
X2182Y119D01*
X2182Y123D01*
X2180Y123D01*
X2180Y127D01*
X2178Y127D01*
X2178Y131D01*
X2176Y131D01*
X2176Y135D01*
X2174Y135D01*
X2174Y143D01*
X2172Y143D01*
X2172Y173D01*
X2174Y173D01*
X2174Y179D01*
X2176Y179D01*
X2176Y185D01*
X1738Y185D01*
G37*
D02*
G36*
X1178Y105D02*
X1178Y103D01*
X1176Y103D01*
X1176Y101D01*
X1172Y101D01*
X1172Y99D01*
X1170Y99D01*
X1170Y97D01*
X1166Y97D01*
X1166Y95D01*
X1164Y95D01*
X1164Y93D01*
X1160Y93D01*
X1160Y91D01*
X1158Y91D01*
X1158Y89D01*
X1154Y89D01*
X1154Y87D01*
X1152Y87D01*
X1152Y85D01*
X1148Y85D01*
X1148Y83D01*
X1146Y83D01*
X1146Y81D01*
X1142Y81D01*
X1142Y79D01*
X1140Y79D01*
X1140Y77D01*
X1136Y77D01*
X1136Y75D01*
X1134Y75D01*
X1134Y73D01*
X1130Y73D01*
X1130Y71D01*
X1128Y71D01*
X1128Y69D01*
X1124Y69D01*
X1124Y67D01*
X1122Y67D01*
X1122Y65D01*
X1118Y65D01*
X1118Y63D01*
X1116Y63D01*
X1116Y61D01*
X1112Y61D01*
X1112Y41D01*
X1196Y41D01*
X1196Y59D01*
X1198Y59D01*
X1198Y71D01*
X1200Y71D01*
X1200Y77D01*
X1202Y77D01*
X1202Y81D01*
X1204Y81D01*
X1204Y85D01*
X1206Y85D01*
X1206Y87D01*
X1208Y87D01*
X1208Y89D01*
X1210Y89D01*
X1210Y91D01*
X1212Y91D01*
X1212Y93D01*
X1214Y93D01*
X1214Y95D01*
X1216Y95D01*
X1216Y97D01*
X1220Y97D01*
X1220Y99D01*
X1222Y99D01*
X1222Y101D01*
X1228Y101D01*
X1228Y103D01*
X1234Y103D01*
X1234Y105D01*
X1178Y105D01*
G37*
D02*
G36*
X1256Y105D02*
X1256Y103D01*
X1262Y103D01*
X1262Y101D01*
X1266Y101D01*
X1266Y99D01*
X1270Y99D01*
X1270Y97D01*
X1272Y97D01*
X1272Y95D01*
X1274Y95D01*
X1274Y93D01*
X1278Y93D01*
X1278Y91D01*
X1280Y91D01*
X1280Y87D01*
X1282Y87D01*
X1282Y85D01*
X1284Y85D01*
X1284Y83D01*
X1286Y83D01*
X1286Y79D01*
X1288Y79D01*
X1288Y73D01*
X1290Y73D01*
X1290Y67D01*
X1292Y67D01*
X1292Y41D01*
X1452Y41D01*
X1452Y61D01*
X1454Y61D01*
X1454Y71D01*
X1456Y71D01*
X1456Y77D01*
X1458Y77D01*
X1458Y81D01*
X1460Y81D01*
X1460Y85D01*
X1462Y85D01*
X1462Y87D01*
X1464Y87D01*
X1464Y89D01*
X1466Y89D01*
X1466Y91D01*
X1468Y91D01*
X1468Y93D01*
X1470Y93D01*
X1470Y95D01*
X1472Y95D01*
X1472Y97D01*
X1476Y97D01*
X1476Y99D01*
X1478Y99D01*
X1478Y101D01*
X1482Y101D01*
X1482Y103D01*
X1490Y103D01*
X1490Y105D01*
X1256Y105D01*
G37*
D02*
G36*
X1510Y105D02*
X1510Y103D01*
X1518Y103D01*
X1518Y101D01*
X1522Y101D01*
X1522Y99D01*
X1526Y99D01*
X1526Y97D01*
X1528Y97D01*
X1528Y95D01*
X1530Y95D01*
X1530Y93D01*
X1534Y93D01*
X1534Y91D01*
X1536Y91D01*
X1536Y87D01*
X1538Y87D01*
X1538Y85D01*
X1540Y85D01*
X1540Y81D01*
X1542Y81D01*
X1542Y79D01*
X1544Y79D01*
X1544Y73D01*
X1546Y73D01*
X1546Y67D01*
X1548Y67D01*
X1548Y41D01*
X1696Y41D01*
X1696Y59D01*
X1698Y59D01*
X1698Y71D01*
X1700Y71D01*
X1700Y77D01*
X1702Y77D01*
X1702Y81D01*
X1704Y81D01*
X1704Y85D01*
X1706Y85D01*
X1706Y87D01*
X1708Y87D01*
X1708Y89D01*
X1710Y89D01*
X1710Y91D01*
X1712Y91D01*
X1712Y93D01*
X1714Y93D01*
X1714Y95D01*
X1716Y95D01*
X1716Y97D01*
X1720Y97D01*
X1720Y99D01*
X1722Y99D01*
X1722Y101D01*
X1728Y101D01*
X1728Y103D01*
X1734Y103D01*
X1734Y105D01*
X1510Y105D01*
G37*
D02*
G36*
X1756Y105D02*
X1756Y103D01*
X1762Y103D01*
X1762Y101D01*
X1766Y101D01*
X1766Y99D01*
X1770Y99D01*
X1770Y97D01*
X1772Y97D01*
X1772Y95D01*
X1774Y95D01*
X1774Y93D01*
X1778Y93D01*
X1778Y91D01*
X1780Y91D01*
X1780Y87D01*
X1782Y87D01*
X1782Y85D01*
X1784Y85D01*
X1784Y83D01*
X1786Y83D01*
X1786Y79D01*
X1788Y79D01*
X1788Y73D01*
X1790Y73D01*
X1790Y67D01*
X1792Y67D01*
X1792Y41D01*
X1952Y41D01*
X1952Y61D01*
X1954Y61D01*
X1954Y71D01*
X1956Y71D01*
X1956Y77D01*
X1958Y77D01*
X1958Y81D01*
X1960Y81D01*
X1960Y85D01*
X1962Y85D01*
X1962Y87D01*
X1964Y87D01*
X1964Y89D01*
X1966Y89D01*
X1966Y91D01*
X1968Y91D01*
X1968Y93D01*
X1970Y93D01*
X1970Y95D01*
X1972Y95D01*
X1972Y97D01*
X1976Y97D01*
X1976Y99D01*
X1978Y99D01*
X1978Y101D01*
X1982Y101D01*
X1982Y103D01*
X1990Y103D01*
X1990Y105D01*
X1756Y105D01*
G37*
D02*
G36*
X2256Y87D02*
X2256Y85D01*
X2282Y85D01*
X2282Y87D01*
X2256Y87D01*
G37*
D02*
G36*
X2040Y85D02*
X2040Y83D01*
X2282Y83D01*
X2282Y85D01*
X2040Y85D01*
G37*
D02*
G36*
X2040Y85D02*
X2040Y83D01*
X2282Y83D01*
X2282Y85D01*
X2040Y85D01*
G37*
D02*
G36*
X2040Y83D02*
X2040Y81D01*
X2042Y81D01*
X2042Y79D01*
X2044Y79D01*
X2044Y73D01*
X2046Y73D01*
X2046Y67D01*
X2048Y67D01*
X2048Y41D01*
X2282Y41D01*
X2282Y83D01*
X2040Y83D01*
G37*
D02*
G36*
X40Y75D02*
X40Y73D01*
X772Y73D01*
X772Y75D01*
X40Y75D01*
G37*
D02*
G36*
X40Y75D02*
X40Y73D01*
X772Y73D01*
X772Y75D01*
X40Y75D01*
G37*
D02*
G36*
X40Y73D02*
X40Y41D01*
X786Y41D01*
X786Y61D01*
X784Y61D01*
X784Y63D01*
X782Y63D01*
X782Y65D01*
X780Y65D01*
X780Y67D01*
X778Y67D01*
X778Y69D01*
X776Y69D01*
X776Y71D01*
X774Y71D01*
X774Y73D01*
X40Y73D01*
G37*
D02*
G36*
X792Y307D02*
X792Y115D01*
X794Y115D01*
X794Y113D01*
X796Y113D01*
X796Y111D01*
X798Y111D01*
X798Y109D01*
X800Y109D01*
X800Y107D01*
X802Y107D01*
X802Y105D01*
X804Y105D01*
X804Y103D01*
X806Y103D01*
X806Y101D01*
X808Y101D01*
X808Y99D01*
X810Y99D01*
X810Y97D01*
X812Y97D01*
X812Y95D01*
X814Y95D01*
X814Y93D01*
X816Y93D01*
X816Y91D01*
X818Y91D01*
X818Y89D01*
X820Y89D01*
X820Y87D01*
X822Y87D01*
X822Y85D01*
X824Y85D01*
X824Y83D01*
X826Y83D01*
X826Y81D01*
X828Y81D01*
X828Y79D01*
X910Y79D01*
X910Y99D01*
X906Y99D01*
X906Y101D01*
X904Y101D01*
X904Y103D01*
X902Y103D01*
X902Y105D01*
X900Y105D01*
X900Y107D01*
X898Y107D01*
X898Y109D01*
X896Y109D01*
X896Y111D01*
X894Y111D01*
X894Y113D01*
X892Y113D01*
X892Y117D01*
X890Y117D01*
X890Y119D01*
X888Y119D01*
X888Y123D01*
X886Y123D01*
X886Y127D01*
X884Y127D01*
X884Y131D01*
X882Y131D01*
X882Y137D01*
X880Y137D01*
X880Y143D01*
X878Y143D01*
X878Y173D01*
X880Y173D01*
X880Y181D01*
X882Y181D01*
X882Y185D01*
X884Y185D01*
X884Y191D01*
X886Y191D01*
X886Y195D01*
X888Y195D01*
X888Y197D01*
X890Y197D01*
X890Y201D01*
X892Y201D01*
X892Y203D01*
X894Y203D01*
X894Y205D01*
X896Y205D01*
X896Y207D01*
X898Y207D01*
X898Y211D01*
X902Y211D01*
X902Y213D01*
X904Y213D01*
X904Y215D01*
X906Y215D01*
X906Y235D01*
X866Y235D01*
X866Y237D01*
X860Y237D01*
X860Y239D01*
X856Y239D01*
X856Y241D01*
X854Y241D01*
X854Y243D01*
X852Y243D01*
X852Y245D01*
X850Y245D01*
X850Y249D01*
X848Y249D01*
X848Y251D01*
X846Y251D01*
X846Y255D01*
X844Y255D01*
X844Y257D01*
X842Y257D01*
X842Y261D01*
X840Y261D01*
X840Y263D01*
X838Y263D01*
X838Y267D01*
X836Y267D01*
X836Y269D01*
X834Y269D01*
X834Y273D01*
X832Y273D01*
X832Y275D01*
X830Y275D01*
X830Y279D01*
X828Y279D01*
X828Y281D01*
X826Y281D01*
X826Y285D01*
X824Y285D01*
X824Y289D01*
X822Y289D01*
X822Y291D01*
X820Y291D01*
X820Y295D01*
X818Y295D01*
X818Y297D01*
X816Y297D01*
X816Y301D01*
X814Y301D01*
X814Y303D01*
X812Y303D01*
X812Y307D01*
X792Y307D01*
G37*
D02*
G36*
X994Y235D02*
X994Y215D01*
X998Y215D01*
X998Y213D01*
X1000Y213D01*
X1000Y211D01*
X1002Y211D01*
X1002Y209D01*
X1004Y209D01*
X1004Y207D01*
X1006Y207D01*
X1006Y205D01*
X1008Y205D01*
X1008Y201D01*
X1010Y201D01*
X1010Y199D01*
X1012Y199D01*
X1012Y195D01*
X1014Y195D01*
X1014Y191D01*
X1016Y191D01*
X1016Y187D01*
X1018Y187D01*
X1018Y183D01*
X1020Y183D01*
X1020Y175D01*
X1022Y175D01*
X1022Y165D01*
X1024Y165D01*
X1024Y153D01*
X1022Y153D01*
X1022Y141D01*
X1020Y141D01*
X1020Y135D01*
X1018Y135D01*
X1018Y129D01*
X1016Y129D01*
X1016Y125D01*
X1014Y125D01*
X1014Y121D01*
X1012Y121D01*
X1012Y117D01*
X1010Y117D01*
X1010Y115D01*
X1008Y115D01*
X1008Y113D01*
X1006Y113D01*
X1006Y111D01*
X1004Y111D01*
X1004Y107D01*
X1002Y107D01*
X1002Y105D01*
X1000Y105D01*
X1000Y103D01*
X996Y103D01*
X996Y101D01*
X994Y101D01*
X994Y99D01*
X992Y99D01*
X992Y79D01*
X1064Y79D01*
X1064Y81D01*
X1066Y81D01*
X1066Y83D01*
X1070Y83D01*
X1070Y85D01*
X1072Y85D01*
X1072Y87D01*
X1076Y87D01*
X1076Y89D01*
X1078Y89D01*
X1078Y91D01*
X1082Y91D01*
X1082Y93D01*
X1084Y93D01*
X1084Y95D01*
X1088Y95D01*
X1088Y97D01*
X1090Y97D01*
X1090Y99D01*
X1094Y99D01*
X1094Y101D01*
X1096Y101D01*
X1096Y103D01*
X1100Y103D01*
X1100Y105D01*
X1102Y105D01*
X1102Y107D01*
X1106Y107D01*
X1106Y109D01*
X1108Y109D01*
X1108Y111D01*
X1112Y111D01*
X1112Y113D01*
X1114Y113D01*
X1114Y115D01*
X1118Y115D01*
X1118Y117D01*
X1120Y117D01*
X1120Y119D01*
X1124Y119D01*
X1124Y121D01*
X1126Y121D01*
X1126Y123D01*
X1130Y123D01*
X1130Y125D01*
X1132Y125D01*
X1132Y127D01*
X1136Y127D01*
X1136Y129D01*
X1138Y129D01*
X1138Y131D01*
X1142Y131D01*
X1142Y133D01*
X1144Y133D01*
X1144Y135D01*
X1148Y135D01*
X1148Y137D01*
X1150Y137D01*
X1150Y139D01*
X1154Y139D01*
X1154Y141D01*
X1156Y141D01*
X1156Y143D01*
X1160Y143D01*
X1160Y145D01*
X1162Y145D01*
X1162Y147D01*
X1166Y147D01*
X1166Y149D01*
X1168Y149D01*
X1168Y151D01*
X1172Y151D01*
X1172Y153D01*
X1174Y153D01*
X1174Y155D01*
X1178Y155D01*
X1178Y157D01*
X1180Y157D01*
X1180Y159D01*
X1184Y159D01*
X1184Y161D01*
X1186Y161D01*
X1186Y163D01*
X1190Y163D01*
X1190Y165D01*
X1192Y165D01*
X1192Y167D01*
X1196Y167D01*
X1196Y169D01*
X1198Y169D01*
X1198Y171D01*
X1202Y171D01*
X1202Y173D01*
X1204Y173D01*
X1204Y175D01*
X1208Y175D01*
X1208Y177D01*
X1212Y177D01*
X1212Y179D01*
X1216Y179D01*
X1216Y199D01*
X1212Y199D01*
X1212Y201D01*
X1210Y201D01*
X1210Y203D01*
X1208Y203D01*
X1208Y207D01*
X1206Y207D01*
X1206Y209D01*
X1204Y209D01*
X1204Y213D01*
X1202Y213D01*
X1202Y217D01*
X1200Y217D01*
X1200Y223D01*
X1198Y223D01*
X1198Y231D01*
X1196Y231D01*
X1196Y233D01*
X1192Y233D01*
X1192Y235D01*
X994Y235D01*
G37*
D02*
G36*
X938Y211D02*
X938Y209D01*
X932Y209D01*
X932Y207D01*
X928Y207D01*
X928Y205D01*
X924Y205D01*
X924Y203D01*
X920Y203D01*
X920Y201D01*
X918Y201D01*
X918Y199D01*
X916Y199D01*
X916Y197D01*
X914Y197D01*
X914Y195D01*
X912Y195D01*
X912Y193D01*
X910Y193D01*
X910Y191D01*
X908Y191D01*
X908Y189D01*
X906Y189D01*
X906Y185D01*
X904Y185D01*
X904Y183D01*
X902Y183D01*
X902Y179D01*
X900Y179D01*
X900Y171D01*
X898Y171D01*
X898Y145D01*
X900Y145D01*
X900Y139D01*
X902Y139D01*
X902Y135D01*
X904Y135D01*
X904Y131D01*
X906Y131D01*
X906Y127D01*
X908Y127D01*
X908Y125D01*
X910Y125D01*
X910Y123D01*
X912Y123D01*
X912Y121D01*
X914Y121D01*
X914Y119D01*
X916Y119D01*
X916Y117D01*
X918Y117D01*
X918Y115D01*
X922Y115D01*
X922Y113D01*
X924Y113D01*
X924Y111D01*
X928Y111D01*
X928Y109D01*
X934Y109D01*
X934Y107D01*
X968Y107D01*
X968Y109D01*
X972Y109D01*
X972Y111D01*
X976Y111D01*
X976Y113D01*
X980Y113D01*
X980Y115D01*
X982Y115D01*
X982Y117D01*
X984Y117D01*
X984Y119D01*
X986Y119D01*
X986Y121D01*
X988Y121D01*
X988Y123D01*
X990Y123D01*
X990Y125D01*
X992Y125D01*
X992Y127D01*
X994Y127D01*
X994Y129D01*
X996Y129D01*
X996Y133D01*
X998Y133D01*
X998Y137D01*
X1000Y137D01*
X1000Y143D01*
X1002Y143D01*
X1002Y175D01*
X1000Y175D01*
X1000Y179D01*
X998Y179D01*
X998Y183D01*
X996Y183D01*
X996Y187D01*
X994Y187D01*
X994Y189D01*
X992Y189D01*
X992Y191D01*
X990Y191D01*
X990Y195D01*
X988Y195D01*
X988Y197D01*
X986Y197D01*
X986Y199D01*
X982Y199D01*
X982Y201D01*
X980Y201D01*
X980Y203D01*
X978Y203D01*
X978Y205D01*
X974Y205D01*
X974Y207D01*
X970Y207D01*
X970Y209D01*
X962Y209D01*
X962Y211D01*
X938Y211D01*
G37*
D02*
G36*
X2234Y211D02*
X2234Y209D01*
X2226Y209D01*
X2226Y207D01*
X2222Y207D01*
X2222Y205D01*
X2218Y205D01*
X2218Y203D01*
X2214Y203D01*
X2214Y201D01*
X2212Y201D01*
X2212Y199D01*
X2210Y199D01*
X2210Y197D01*
X2208Y197D01*
X2208Y195D01*
X2206Y195D01*
X2206Y193D01*
X2204Y193D01*
X2204Y191D01*
X2202Y191D01*
X2202Y189D01*
X2200Y189D01*
X2200Y185D01*
X2198Y185D01*
X2198Y181D01*
X2196Y181D01*
X2196Y177D01*
X2194Y177D01*
X2194Y171D01*
X2192Y171D01*
X2192Y145D01*
X2194Y145D01*
X2194Y139D01*
X2196Y139D01*
X2196Y133D01*
X2198Y133D01*
X2198Y131D01*
X2200Y131D01*
X2200Y127D01*
X2202Y127D01*
X2202Y125D01*
X2204Y125D01*
X2204Y123D01*
X2206Y123D01*
X2206Y121D01*
X2208Y121D01*
X2208Y119D01*
X2210Y119D01*
X2210Y117D01*
X2212Y117D01*
X2212Y115D01*
X2214Y115D01*
X2214Y113D01*
X2218Y113D01*
X2218Y111D01*
X2222Y111D01*
X2222Y109D01*
X2226Y109D01*
X2226Y107D01*
X2234Y107D01*
X2234Y105D01*
X2256Y105D01*
X2256Y107D01*
X2262Y107D01*
X2262Y109D01*
X2268Y109D01*
X2268Y111D01*
X2272Y111D01*
X2272Y113D01*
X2274Y113D01*
X2274Y115D01*
X2276Y115D01*
X2276Y117D01*
X2280Y117D01*
X2280Y119D01*
X2282Y119D01*
X2282Y197D01*
X2278Y197D01*
X2278Y199D01*
X2276Y199D01*
X2276Y201D01*
X2274Y201D01*
X2274Y203D01*
X2270Y203D01*
X2270Y205D01*
X2266Y205D01*
X2266Y207D01*
X2262Y207D01*
X2262Y209D01*
X2254Y209D01*
X2254Y211D01*
X2234Y211D01*
G37*
D02*
G36*
X120Y201D02*
X120Y199D01*
X114Y199D01*
X114Y197D01*
X110Y197D01*
X110Y195D01*
X106Y195D01*
X106Y193D01*
X104Y193D01*
X104Y191D01*
X100Y191D01*
X100Y189D01*
X98Y189D01*
X98Y187D01*
X96Y187D01*
X96Y185D01*
X94Y185D01*
X94Y183D01*
X92Y183D01*
X92Y181D01*
X90Y181D01*
X90Y177D01*
X88Y177D01*
X88Y175D01*
X86Y175D01*
X86Y171D01*
X84Y171D01*
X84Y165D01*
X82Y165D01*
X82Y131D01*
X84Y131D01*
X84Y127D01*
X86Y127D01*
X86Y123D01*
X88Y123D01*
X88Y119D01*
X90Y119D01*
X90Y117D01*
X92Y117D01*
X92Y115D01*
X94Y115D01*
X94Y113D01*
X96Y113D01*
X96Y111D01*
X98Y111D01*
X98Y109D01*
X100Y109D01*
X100Y107D01*
X102Y107D01*
X102Y105D01*
X104Y105D01*
X104Y103D01*
X108Y103D01*
X108Y101D01*
X112Y101D01*
X112Y99D01*
X116Y99D01*
X116Y97D01*
X150Y97D01*
X150Y99D01*
X156Y99D01*
X156Y101D01*
X160Y101D01*
X160Y103D01*
X162Y103D01*
X162Y105D01*
X164Y105D01*
X164Y107D01*
X168Y107D01*
X168Y109D01*
X170Y109D01*
X170Y111D01*
X172Y111D01*
X172Y113D01*
X174Y113D01*
X174Y115D01*
X176Y115D01*
X176Y119D01*
X178Y119D01*
X178Y121D01*
X180Y121D01*
X180Y125D01*
X182Y125D01*
X182Y129D01*
X184Y129D01*
X184Y135D01*
X186Y135D01*
X186Y161D01*
X184Y161D01*
X184Y167D01*
X182Y167D01*
X182Y173D01*
X180Y173D01*
X180Y175D01*
X178Y175D01*
X178Y179D01*
X176Y179D01*
X176Y181D01*
X174Y181D01*
X174Y183D01*
X172Y183D01*
X172Y185D01*
X170Y185D01*
X170Y187D01*
X168Y187D01*
X168Y189D01*
X166Y189D01*
X166Y191D01*
X164Y191D01*
X164Y193D01*
X160Y193D01*
X160Y195D01*
X158Y195D01*
X158Y197D01*
X152Y197D01*
X152Y199D01*
X146Y199D01*
X146Y201D01*
X120Y201D01*
G37*
D02*
G36*
X56Y430D02*
X80Y430D01*
X80Y394D01*
X56Y394D01*
X56Y430D01*
G37*
D02*
G36*
X106Y430D02*
X128Y430D01*
X128Y394D01*
X106Y394D01*
X106Y430D01*
G37*
D02*
G36*
X56Y828D02*
X80Y828D01*
X80Y792D01*
X56Y792D01*
X56Y828D01*
G37*
D02*
G36*
X106Y828D02*
X128Y828D01*
X128Y792D01*
X106Y792D01*
X106Y828D01*
G37*
D02*
G04 End of Copper0*
M02*