G04 MADE WITH FRITZING*
G04 WWW.FRITZING.ORG*
G04 DOUBLE SIDED*
G04 HOLES PLATED*
G04 CONTOUR ON CENTER OF CONTOUR VECTOR*
%ASAXBY*%
%FSLAX23Y23*%
%MOIN*%
%OFA0B0*%
%SFA1.0B1.0*%
%ADD10C,0.075000*%
%ADD11C,0.062992*%
%ADD12C,0.060000*%
%ADD13C,0.078000*%
%ADD14R,0.062992X0.062992*%
%ADD15R,0.060014X0.060028*%
%ADD16R,0.060000X0.060028*%
%ADD17R,0.077986X0.077944*%
%ADD18C,0.024000*%
%LNCOPPER1*%
G90*
G70*
G54D10*
X2000Y57D03*
X1744Y57D03*
X2000Y235D03*
X1744Y235D03*
X1500Y57D03*
X1244Y57D03*
X1500Y235D03*
X1244Y235D03*
G54D11*
X2044Y557D03*
X2044Y656D03*
X1644Y557D03*
X1644Y656D03*
X1244Y557D03*
X1244Y656D03*
G54D10*
X1744Y357D03*
X2044Y357D03*
X1244Y357D03*
X1544Y357D03*
X1944Y757D03*
X2244Y757D03*
X1544Y757D03*
X1844Y757D03*
X1144Y757D03*
X1444Y757D03*
G54D12*
X94Y311D03*
X94Y410D03*
X94Y510D03*
X94Y610D03*
X94Y709D03*
X94Y809D03*
X94Y908D03*
X94Y1008D03*
X94Y1107D03*
X94Y1207D03*
X94Y1307D03*
X94Y1406D03*
X94Y1506D03*
X94Y1605D03*
X94Y1705D03*
X988Y1705D03*
X988Y1605D03*
X988Y1506D03*
X988Y1406D03*
X988Y1307D03*
X988Y1207D03*
X988Y1107D03*
X988Y1008D03*
X988Y908D03*
X988Y809D03*
X988Y709D03*
X988Y610D03*
X988Y510D03*
X988Y410D03*
X988Y311D03*
G54D13*
X1594Y1857D03*
X1694Y1857D03*
X1794Y1857D03*
X1894Y1857D03*
G54D14*
X2044Y557D03*
X1644Y557D03*
X1244Y557D03*
G54D15*
X94Y410D03*
X94Y809D03*
G54D16*
X988Y1107D03*
X988Y410D03*
G54D17*
X1594Y1857D03*
G54D18*
X1494Y1408D02*
X1543Y1359D01*
D02*
X1543Y1359D02*
X1544Y775D01*
D02*
X1002Y1406D02*
X1494Y1408D01*
D02*
X1070Y308D02*
X1245Y107D01*
D02*
X1245Y107D02*
X1245Y75D01*
D02*
X1002Y310D02*
X1070Y308D01*
D02*
X1744Y75D02*
X1744Y107D01*
D02*
X1294Y157D02*
X1245Y107D01*
D02*
X1695Y157D02*
X1294Y157D01*
D02*
X1245Y107D02*
X1245Y75D01*
D02*
X1744Y107D02*
X1695Y157D01*
D02*
X2227Y757D02*
X2095Y758D01*
D02*
X2044Y708D02*
X2044Y672D01*
D02*
X2095Y758D02*
X2044Y708D01*
D02*
X1260Y656D02*
X1395Y658D01*
D02*
X1445Y708D02*
X1445Y740D01*
D02*
X1395Y658D02*
X1445Y708D01*
D02*
X2039Y341D02*
X2006Y251D01*
D02*
X1539Y341D02*
X1506Y251D01*
D02*
X1844Y740D02*
X1844Y708D01*
D02*
X1795Y657D02*
X1660Y656D01*
D02*
X1844Y708D02*
X1795Y657D01*
D02*
X1002Y709D02*
X1045Y708D01*
D02*
X1895Y457D02*
X1945Y507D01*
D02*
X1144Y457D02*
X1895Y457D01*
D02*
X1945Y507D02*
X1944Y740D01*
D02*
X1045Y708D02*
X1144Y457D01*
D02*
X1144Y775D02*
X1145Y958D01*
D02*
X1145Y958D02*
X1094Y1007D01*
D02*
X1094Y1007D02*
X1002Y1008D01*
D02*
X1894Y1838D02*
X1894Y1557D01*
D02*
X1844Y1508D02*
X1002Y1506D01*
D02*
X1894Y1557D02*
X1844Y1508D01*
D02*
X1795Y1838D02*
X1795Y1658D01*
D02*
X1744Y1608D02*
X1002Y1605D01*
D02*
X1795Y1658D02*
X1744Y1608D01*
D02*
X1045Y1757D02*
X295Y1757D01*
D02*
X1695Y1838D02*
X1695Y1757D01*
D02*
X195Y307D02*
X108Y310D01*
D02*
X245Y357D02*
X195Y307D01*
D02*
X295Y1757D02*
X245Y1707D01*
D02*
X245Y1707D02*
X245Y357D01*
D02*
X1695Y1757D02*
X1645Y1708D01*
D02*
X1645Y1708D02*
X1095Y1708D01*
D02*
X1095Y1708D02*
X1045Y1757D01*
G04 End of Copper1*
M02*